<svg width="100" height="100" viewBox="0 0 100 100" fill="none" xmlns="http://www.w3.org/2000/svg">
<rect width="4.53599" height="12.0481" rx="2.268" transform="matrix(0.969122 0.246583 -0.271571 0.962418 23.2719 52.2863)" fill="url(#paint0_linear_312_2373)"/>
<rect width="4.53599" height="12.0481" rx="2.268" transform="matrix(0.969122 0.246583 -0.271571 0.962418 38.0191 52.2863)" fill="url(#paint1_linear_312_2373)"/>
<rect width="4.53599" height="12.0481" rx="2.268" transform="matrix(0.969122 0.246583 -0.271571 0.962418 52.7662 52.2863)" fill="url(#paint2_linear_312_2373)"/>
<rect width="4.53599" height="12.0481" rx="2.268" transform="matrix(0.969122 0.246583 -0.271571 0.962418 67.5134 52.2863)" fill="url(#paint3_linear_312_2373)"/>
<rect width="4.53599" height="12.0481" rx="2.268" transform="matrix(0.969122 0.246583 -0.271571 0.962418 31.3626 35)" fill="url(#paint4_linear_312_2373)"/>
<rect width="4.53599" height="12.0481" rx="2.268" transform="matrix(0.969122 0.246583 -0.271571 0.962418 46.1097 35)" fill="url(#paint5_linear_312_2373)"/>
<rect width="4.53599" height="12.0481" rx="2.268" transform="matrix(0.969122 0.246583 -0.271571 0.962418 60.8569 35)" fill="url(#paint6_linear_312_2373)"/>
<rect width="4.53599" height="12.0481" rx="2.268" transform="matrix(0.969122 0.246583 -0.271571 0.962418 75.6041 35)" fill="url(#paint7_linear_312_2373)"/>
<defs>
<linearGradient id="paint0_linear_312_2373" x1="0.503999" y1="10.6023" x2="4.23869" y2="1.32607" gradientUnits="userSpaceOnUse">
<stop stop-color="#3981EE"/>
<stop offset="1" stop-color="#92BDFF"/>
</linearGradient>
<linearGradient id="paint1_linear_312_2373" x1="0.503999" y1="10.6023" x2="4.23869" y2="1.32607" gradientUnits="userSpaceOnUse">
<stop stop-color="#3981EE"/>
<stop offset="1" stop-color="#92BDFF"/>
</linearGradient>
<linearGradient id="paint2_linear_312_2373" x1="0.503999" y1="10.6023" x2="4.23869" y2="1.32607" gradientUnits="userSpaceOnUse">
<stop stop-color="#3981EE"/>
<stop offset="1" stop-color="#92BDFF"/>
</linearGradient>
<linearGradient id="paint3_linear_312_2373" x1="0.503999" y1="10.6023" x2="4.23869" y2="1.32607" gradientUnits="userSpaceOnUse">
<stop stop-color="#3981EE"/>
<stop offset="1" stop-color="#92BDFF"/>
</linearGradient>
<linearGradient id="paint4_linear_312_2373" x1="0.503999" y1="10.6023" x2="4.23869" y2="1.32607" gradientUnits="userSpaceOnUse">
<stop stop-color="#3981EE"/>
<stop offset="1" stop-color="#92BDFF"/>
</linearGradient>
<linearGradient id="paint5_linear_312_2373" x1="0.503999" y1="10.6023" x2="4.23869" y2="1.32607" gradientUnits="userSpaceOnUse">
<stop stop-color="#3981EE"/>
<stop offset="1" stop-color="#92BDFF"/>
</linearGradient>
<linearGradient id="paint6_linear_312_2373" x1="0.503999" y1="10.6023" x2="4.23869" y2="1.32607" gradientUnits="userSpaceOnUse">
<stop stop-color="#3981EE"/>
<stop offset="1" stop-color="#92BDFF"/>
</linearGradient>
<linearGradient id="paint7_linear_312_2373" x1="0.503999" y1="10.6023" x2="4.23869" y2="1.32607" gradientUnits="userSpaceOnUse">
<stop stop-color="#3981EE"/>
<stop offset="1" stop-color="#92BDFF"/>
</linearGradient>
</defs>
</svg>
