<svg width="100" height="100" viewBox="0 0 100 100" fill="none" xmlns="http://www.w3.org/2000/svg">
<path fill-rule="evenodd" clip-rule="evenodd" d="M60.5069 45.2567C60.2614 45.2567 60.0624 45.4557 60.0624 45.7012V47.0955L59.0481 45.8144C58.8957 45.6219 58.6161 45.5894 58.4236 45.7418C58.2312 45.8942 58.1987 46.1738 58.3511 46.3663L60.0624 48.5277V49.3442L59.0481 48.0631C58.8957 47.8707 58.6161 47.8382 58.4237 47.9906C58.2312 48.143 58.1987 48.4225 58.3511 48.615L60.0624 50.7764V54.615L57.2176 51.7702L56.8994 49.0318C56.871 48.788 56.6504 48.6133 56.4065 48.6416C56.1626 48.6699 55.9879 48.8906 56.0163 49.1345L56.2049 50.7575L55.6275 50.1801L55.3092 47.4417C55.2809 47.1979 55.0602 47.0231 54.8164 47.0515C54.5725 47.0798 54.3978 47.3005 54.4261 47.5443L54.6148 49.1674L53.7594 48.312C53.5858 48.1384 53.3044 48.1384 53.1308 48.312C52.9572 48.4856 52.9572 48.7671 53.1308 48.9407L54.0067 49.8166L52.3468 49.6237C52.1029 49.5954 51.8823 49.7701 51.8539 50.014C51.8256 50.2578 52.0003 50.4785 52.2442 50.5068L55.0194 50.8293L55.5968 51.4067L53.9369 51.2138C53.6931 51.1855 53.4724 51.3602 53.4441 51.6041C53.4157 51.8479 53.5904 52.0686 53.8343 52.0969L56.6096 52.4195L59.4501 55.26H55.3943L53.2329 53.5487C53.0405 53.3963 52.7609 53.4288 52.6085 53.6212C52.4561 53.8137 52.4886 54.0933 52.6811 54.2457L53.9621 55.26H53.1456L50.9842 53.5487C50.7917 53.3963 50.5121 53.4288 50.3597 53.6212C50.2073 53.8137 50.2398 54.0933 50.4323 54.2457L51.7134 55.26H50.5037C50.2582 55.26 50.0591 55.459 50.0591 55.7045C50.0591 55.95 50.2582 56.149 50.5037 56.149H51.7424L50.4323 57.1863C50.2398 57.3387 50.2073 57.6183 50.3597 57.8108C50.5121 58.0033 50.7917 58.0357 50.9842 57.8834L53.1746 56.149H53.9912L52.6811 57.1863C52.4886 57.3387 52.4561 57.6183 52.6085 57.8108C52.7609 58.0033 53.0405 58.0357 53.2329 57.8834L55.4234 56.149H59.4405L56.5727 59.0168L53.8342 59.3351C53.5904 59.3634 53.4156 59.5841 53.444 59.828C53.4723 60.0718 53.693 60.2465 53.9368 60.2182L55.5599 60.0296L54.9826 60.607L52.2441 60.9252C52.0002 60.9535 51.8255 61.1742 51.8539 61.4181C51.8822 61.6619 52.1029 61.8366 52.3467 61.8083L53.9698 61.6197L53.1144 62.4751C52.9408 62.6487 52.9408 62.9301 53.1144 63.1037C53.288 63.2773 53.5695 63.2773 53.7431 63.1037L54.619 62.2278L54.4261 63.8877C54.3978 64.1315 54.5725 64.3522 54.8164 64.3805C55.0602 64.4089 55.2809 64.2342 55.3092 63.9903L55.6317 61.2151L56.2092 60.6377L56.0163 62.2976C55.9879 62.5414 56.1626 62.7621 56.4065 62.7904C56.6503 62.8188 56.871 62.6441 56.8993 62.4002L57.2219 59.6249L60.0624 56.7844V60.8401L58.3511 63.0015C58.1987 63.194 58.2312 63.4736 58.4237 63.626C58.6161 63.7784 58.8957 63.7459 59.0481 63.5534L60.0624 62.2723V63.0888L58.3511 65.2502C58.1987 65.4427 58.2312 65.7223 58.4237 65.8747C58.6161 66.0271 58.8957 65.9946 59.0481 65.8021L60.0624 64.521V65.7308C60.0624 65.9763 60.2614 66.1753 60.5069 66.1753C60.7524 66.1753 60.9515 65.9763 60.9515 65.7308V64.492L61.9888 65.8021C62.1412 65.9946 62.4207 66.0271 62.6132 65.8747C62.8057 65.7223 62.8382 65.4427 62.6858 65.2502L60.9515 63.0598V62.2433L61.9888 63.5534C62.1412 63.7459 62.4207 63.7784 62.6132 63.626C62.8057 63.4736 62.8382 63.194 62.6858 63.0015L60.9515 60.8111V56.7614L63.6846 59.4945L64.0071 62.2697C64.0354 62.5136 64.2561 62.6883 64.4999 62.6599C64.7438 62.6316 64.9185 62.4109 64.8902 62.1671L64.6973 60.5072L65.2747 61.0846L65.5972 63.8598C65.6255 64.1037 65.8462 64.2784 66.09 64.25C66.3339 64.2217 66.5086 64.001 66.4803 63.7572L66.2874 62.0973L67.2938 63.1037C67.4674 63.2773 67.7489 63.2773 67.9225 63.1037C68.0961 62.9301 68.0961 62.6487 67.9225 62.4751L66.9366 61.4892L68.5597 61.6778C68.8035 61.7061 69.0242 61.5314 69.0525 61.2876C69.0809 61.0437 68.9062 60.823 68.6623 60.7947L65.9238 60.4764L65.3465 59.8991L66.9696 60.0877C67.2134 60.116 67.4341 59.9413 67.4624 59.6975C67.4908 59.4536 67.3161 59.2329 67.0722 59.2046L64.3337 58.8863L61.5964 56.149H65.4289L67.6194 57.8834C67.8119 58.0357 68.0914 58.0033 68.2438 57.8108C68.3962 57.6183 68.3637 57.3387 68.1713 57.1863L66.8611 56.149H67.6777L69.8682 57.8834C70.0606 58.0357 70.3402 58.0033 70.4926 57.8108C70.645 57.6183 70.6125 57.3387 70.42 57.1863L69.1099 56.149H70.5332C70.7787 56.149 70.9777 55.95 70.9777 55.7045C70.9777 55.459 70.7787 55.26 70.5332 55.26H69.139L70.42 54.2457C70.6125 54.0933 70.645 53.8137 70.4926 53.6212C70.3402 53.4288 70.0606 53.3963 69.8682 53.5487L67.7068 55.26H66.8902L68.1713 54.2457C68.3637 54.0933 68.3962 53.8137 68.2438 53.6212C68.0914 53.4288 67.8119 53.3963 67.6194 53.5487L65.458 55.26H61.5868L64.2969 52.5499L67.0721 52.2274C67.316 52.1991 67.4907 51.9784 67.4624 51.7346C67.434 51.4907 67.2134 51.316 66.9695 51.3443L65.3096 51.5372L65.887 50.9598L68.6622 50.6373C68.9061 50.609 69.0808 50.3883 69.0525 50.1444C69.0241 49.9006 68.8035 49.7259 68.5596 49.7542L66.8997 49.9471L67.9061 48.9407C68.0797 48.7671 68.0797 48.4856 67.9061 48.312C67.7325 48.1385 67.4511 48.1385 67.2775 48.312L66.2916 49.2979L66.4803 47.6748C66.5086 47.431 66.3339 47.2103 66.09 47.182C65.8462 47.1536 65.6255 47.3283 65.5972 47.5722L65.2789 50.3106L64.7015 50.888L64.8901 49.2649C64.9185 49.0211 64.7438 48.8004 64.4999 48.7721C64.2561 48.7437 64.0354 48.9185 64.0071 49.1623L63.6888 51.9007L60.9515 54.638V50.8054L62.6858 48.615C62.8382 48.4225 62.8057 48.143 62.6132 47.9906C62.4207 47.8382 62.1412 47.8707 61.9888 48.0631L60.9515 49.3732V48.5567L62.6858 46.3663C62.8382 46.1738 62.8057 45.8942 62.6132 45.7418C62.4207 45.5894 62.1412 45.6219 61.9888 45.8144L60.9515 47.1245V45.7012C60.9515 45.4557 60.7524 45.2567 60.5069 45.2567Z" fill="url(#paint0_linear_312_2369)"/>
<path fill-rule="evenodd" clip-rule="evenodd" d="M51.0824 71.4786C50.913 71.4786 50.7756 71.616 50.7756 71.7854V72.7477L50.0756 71.8635C49.9704 71.7307 49.7775 71.7083 49.6446 71.8134C49.5118 71.9186 49.4894 72.1116 49.5946 72.2444L50.7756 73.7361V74.2996L50.0756 73.4155C49.9704 73.2826 49.7775 73.2602 49.6446 73.3654C49.5118 73.4706 49.4894 73.6635 49.5946 73.7963L50.7756 75.288V77.9372L48.8123 75.9739L48.5927 74.084C48.5731 73.9157 48.4208 73.7951 48.2525 73.8147C48.0842 73.8342 47.9637 73.9865 47.9832 74.1548L48.1134 75.275L47.7149 74.8765L47.4953 72.9866C47.4757 72.8183 47.3234 72.6977 47.1551 72.7173C46.9868 72.7368 46.8662 72.8891 46.8858 73.0574L47.016 74.1775L46.4257 73.5872C46.3059 73.4674 46.1116 73.4674 45.9918 73.5872C45.872 73.707 45.872 73.9013 45.9918 74.0211L46.5963 74.6256L45.4508 74.4925C45.2825 74.4729 45.1302 74.5935 45.1106 74.7618C45.091 74.9301 45.2116 75.0824 45.3799 75.1019L47.2953 75.3245L47.6937 75.723L46.5482 75.5899C46.3799 75.5703 46.2276 75.6909 46.208 75.8592C46.1885 76.0275 46.309 76.1798 46.4773 76.1993L48.3927 76.4219L50.353 78.3823H47.554L46.0623 77.2012C45.9295 77.0961 45.7365 77.1185 45.6314 77.2513C45.5262 77.3842 45.5486 77.5771 45.6814 77.6823L46.5656 78.3823H46.002L44.5103 77.2012C44.3775 77.0961 44.1846 77.1185 44.0794 77.2513C43.9742 77.3842 43.9966 77.5771 44.1295 77.6823L45.0136 78.3823H44.1787C44.0093 78.3823 43.8719 78.5197 43.8719 78.6891C43.8719 78.8585 44.0093 78.9959 44.1787 78.9959H45.0336L44.1295 79.7118C43.9966 79.8169 43.9742 80.0099 44.0794 80.1427C44.1846 80.2755 44.3775 80.298 44.5103 80.1928L46.0221 78.9959H46.5856L45.6814 79.7118C45.5486 79.8169 45.5262 80.0099 45.6314 80.1427C45.7365 80.2755 45.9295 80.298 46.0623 80.1928L47.574 78.9959H50.3464L48.3672 80.9751L46.4773 81.1947C46.309 81.2143 46.1884 81.3665 46.208 81.5348C46.2275 81.7031 46.3798 81.8237 46.5481 81.8042L47.6683 81.674L47.2698 82.0725L45.3799 82.2921C45.2116 82.3117 45.091 82.464 45.1106 82.6322C45.1301 82.8005 45.2824 82.9211 45.4507 82.9016L46.5709 82.7714L45.9805 83.3617C45.8607 83.4815 45.8607 83.6758 45.9805 83.7956C46.1003 83.9154 46.2946 83.9154 46.4144 83.7956L47.0189 83.1911L46.8858 84.3366C46.8662 84.5049 46.9868 84.6572 47.1551 84.6768C47.3234 84.6963 47.4757 84.5758 47.4952 84.4075L47.7178 82.4921L48.1163 82.0936L47.9832 83.2392C47.9636 83.4075 48.0842 83.5598 48.2525 83.5794C48.4208 83.5989 48.5731 83.4784 48.5927 83.3101L48.8152 81.3947L50.7756 79.4343V82.2334L49.5946 83.7251C49.4894 83.8579 49.5118 84.0508 49.6446 84.156C49.7775 84.2612 49.9704 84.2388 50.0756 84.1059L50.7756 83.2218V83.7853L49.5946 85.277C49.4894 85.4098 49.5118 85.6028 49.6446 85.7079C49.7775 85.8131 49.9704 85.7907 50.0756 85.6579L50.7756 84.7737V85.6086C50.7756 85.7781 50.913 85.9154 51.0824 85.9154C51.2518 85.9154 51.3892 85.7781 51.3892 85.6086V84.7537L52.1051 85.6579C52.2102 85.7907 52.4032 85.8131 52.536 85.7079C52.6689 85.6028 52.6913 85.4098 52.5861 85.277L51.3892 83.7653V83.2018L52.1051 84.1059C52.2102 84.2388 52.4032 84.2612 52.536 84.156C52.6689 84.0508 52.6913 83.8579 52.5861 83.7251L51.3892 82.2133V79.4185L53.2754 81.3047L53.498 83.22C53.5175 83.3883 53.6698 83.5089 53.8381 83.4893C54.0064 83.4697 54.127 83.3175 54.1074 83.1492L53.9743 82.0036L54.3728 82.4021L54.5954 84.3174C54.6149 84.4857 54.7672 84.6063 54.9355 84.5867C55.1038 84.5671 55.2244 84.4149 55.2048 84.2466L55.0717 83.101L55.7663 83.7956C55.8861 83.9154 56.0803 83.9154 56.2002 83.7956C56.32 83.6758 56.32 83.4815 56.2002 83.3617L55.5197 82.6813L56.6399 82.8115C56.8082 82.8311 56.9605 82.7105 56.9801 82.5422C56.9996 82.3739 56.8791 82.2216 56.7108 82.202L54.8208 81.9824L54.4223 81.5839L55.5425 81.7141C55.7108 81.7337 55.8631 81.6131 55.8827 81.4448C55.9022 81.2765 55.7817 81.1242 55.6134 81.1046L53.7234 80.885L51.8343 78.9959H54.4793L55.991 80.1928C56.1238 80.298 56.3168 80.2755 56.4219 80.1427C56.5271 80.0099 56.5047 79.8169 56.3719 79.7118L55.4677 78.9959H56.0312L57.543 80.1928C57.6758 80.298 57.8687 80.2755 57.9739 80.1427C58.0791 80.0099 58.0567 79.8169 57.9238 79.7118L57.0197 78.9959H58.0019C58.1714 78.9959 58.3087 78.8585 58.3087 78.6891C58.3087 78.5197 58.1714 78.3823 58.0019 78.3823H57.0397L57.9238 77.6823C58.0567 77.5771 58.0791 77.3842 57.9739 77.2513C57.8687 77.1185 57.6758 77.0961 57.543 77.2012L56.0513 78.3823H55.4877L56.3719 77.6823C56.5047 77.5771 56.5271 77.3842 56.4219 77.2513C56.3168 77.1185 56.1238 77.0961 55.991 77.2012L54.4993 78.3823H51.8277L53.698 76.512L55.6133 76.2894C55.7816 76.2698 55.9022 76.1176 55.8826 75.9493C55.8631 75.781 55.7108 75.6604 55.5425 75.6799L54.3969 75.8131L54.7954 75.4146L56.7107 75.192C56.879 75.1724 56.9996 75.0202 56.98 74.8519C56.9605 74.6836 56.8082 74.563 56.6399 74.5825L55.4943 74.7157L56.1889 74.0211C56.3087 73.9013 56.3087 73.7071 56.1889 73.5872C56.0691 73.4674 55.8748 73.4674 55.755 73.5872L55.0747 74.2676L55.2048 73.1475C55.2244 72.9792 55.1038 72.8269 54.9355 72.8073C54.7672 72.7878 54.6149 72.9084 54.5954 73.0767L54.3757 74.9665L53.9773 75.365L54.1074 74.2449C54.127 74.0766 54.0064 73.9243 53.8381 73.9047C53.6698 73.8852 53.5175 74.0058 53.498 74.1741L53.2783 76.0639L51.3892 77.9531V75.308L52.5861 73.7963C52.6913 73.6635 52.6689 73.4706 52.536 73.3654C52.4032 73.2602 52.2102 73.2826 52.1051 73.4155L51.3892 74.3196V73.7561L52.5861 72.2444C52.6913 72.1116 52.6689 71.9186 52.536 71.8134C52.4032 71.7083 52.2102 71.7307 52.1051 71.8635L51.3892 72.7677V71.7854C51.3892 71.616 51.2518 71.4786 51.0824 71.4786Z" fill="url(#paint1_linear_312_2369)"/>
<path fill-rule="evenodd" clip-rule="evenodd" d="M37.8225 54.0956C37.6185 54.0956 37.4532 54.261 37.4532 54.465V55.6236L36.6103 54.559C36.4836 54.3991 36.2513 54.3721 36.0914 54.4987C35.9314 54.6253 35.9044 54.8577 36.031 55.0176L37.4532 56.8137V57.4922L36.6103 56.4277C36.4836 56.2677 36.2513 56.2407 36.0914 56.3674C35.9314 56.494 35.9044 56.7263 36.0311 56.8863L37.4532 58.6824V61.8722L35.0892 59.5082L34.8247 57.2326C34.8011 57.03 34.6178 56.8848 34.4151 56.9084C34.2125 56.9319 34.0673 57.1153 34.0909 57.3179L34.2476 58.6667L33.7678 58.1868L33.5033 55.9113C33.4798 55.7086 33.2964 55.5635 33.0938 55.587C32.8911 55.6106 32.7459 55.7939 32.7695 55.9966L32.9262 57.3453L32.2154 56.6345C32.0712 56.4903 31.8373 56.4903 31.6931 56.6345C31.5488 56.7788 31.5488 57.0126 31.6931 57.1569L32.421 57.8848L31.0416 57.7245C30.8389 57.701 30.6556 57.8461 30.632 58.0488C30.6085 58.2514 30.7536 58.4348 30.9563 58.4583L33.2625 58.7264L33.7423 59.2062L32.3629 59.0459C32.1603 59.0223 31.9769 59.1675 31.9534 59.3701C31.9298 59.5728 32.075 59.7562 32.2777 59.7797L34.5839 60.0477L36.9443 62.4082H33.574L31.7779 60.9861C31.618 60.8594 31.3857 60.8864 31.259 61.0464C31.1324 61.2063 31.1594 61.4386 31.3193 61.5653L32.3839 62.4082H31.7053L29.9093 60.9861C29.7493 60.8594 29.517 60.8864 29.3903 61.0464C29.2637 61.2063 29.2907 61.4386 29.4507 61.5653L30.5152 62.4082H29.51C29.3059 62.4082 29.1406 62.5735 29.1406 62.7775C29.1406 62.9816 29.3059 63.1469 29.51 63.1469H30.5393L29.4507 64.0089C29.2907 64.1356 29.2637 64.3679 29.3903 64.5278C29.517 64.6878 29.7493 64.7148 29.9093 64.5881L31.7295 63.1469H32.408L31.3193 64.0089C31.1594 64.1356 31.1324 64.3679 31.259 64.5278C31.3857 64.6878 31.618 64.7148 31.7779 64.5881L33.5982 63.1469H36.9363L34.5532 65.5301L32.2776 65.7945C32.075 65.8181 31.9298 66.0014 31.9533 66.2041C31.9769 66.4067 32.1602 66.5519 32.3629 66.5284L33.7117 66.3716L33.2318 66.8514L30.9562 67.1159C30.7536 67.1394 30.6084 67.3228 30.6319 67.5254C30.6555 67.7281 30.8389 67.8733 31.0415 67.8497L32.3903 67.693L31.6795 68.4038C31.5352 68.5481 31.5352 68.7819 31.6795 68.9262C31.8237 69.0704 32.0576 69.0704 32.2019 68.9262L32.9298 68.1983L32.7695 69.5777C32.7459 69.7803 32.8911 69.9637 33.0937 69.9872C33.2964 70.0108 33.4798 69.8656 33.5033 69.6629L33.7713 67.3567L34.2511 66.8769L34.0908 68.2563C34.0673 68.4589 34.2125 68.6423 34.4151 68.6659C34.6178 68.6894 34.8011 68.5442 34.8247 68.3416L35.0927 66.0354L37.4532 63.6749V67.0452L36.0311 68.8413C35.9044 69.0012 35.9314 69.2335 36.0914 69.3602C36.2513 69.4868 36.4836 69.4598 36.6103 69.2999L37.4532 68.2353V68.9138L36.0311 70.7099C35.9044 70.8699 35.9314 71.1022 36.0914 71.2288C36.2513 71.3555 36.4836 71.3285 36.6103 71.1685L37.4532 70.104V71.1092C37.4532 71.3133 37.6185 71.4786 37.8225 71.4786C38.0266 71.4786 38.1919 71.3133 38.1919 71.1092V70.0798L39.0539 71.1685C39.1806 71.3285 39.4129 71.3555 39.5728 71.2288C39.7328 71.1022 39.7598 70.8699 39.6331 70.7099L38.1919 68.8897V68.2112L39.0539 69.2999C39.1806 69.4598 39.4129 69.4868 39.5728 69.3602C39.7328 69.2335 39.7598 69.0012 39.6331 68.8413L38.1919 67.0211V63.6558L40.4631 65.9269L40.7311 68.2331C40.7547 68.4358 40.938 68.581 41.1407 68.5574C41.3433 68.5339 41.4885 68.3505 41.4649 68.1478L41.3046 66.7685L41.7844 67.2483L42.0525 69.5545C42.076 69.7571 42.2594 69.9023 42.462 69.8788C42.6647 69.8552 42.8098 69.6718 42.7863 69.4692L42.626 68.0899L43.4623 68.9262C43.6066 69.0704 43.8405 69.0704 43.9847 68.9262C44.129 68.7819 44.129 68.548 43.9847 68.4038L43.1655 67.5845L44.5143 67.7413C44.7169 67.7648 44.9003 67.6196 44.9238 67.417C44.9474 67.2143 44.8022 67.031 44.5995 67.0074L42.3239 66.743L41.8441 66.2632L43.1929 66.4199C43.3955 66.4435 43.5789 66.2983 43.6025 66.0956C43.626 65.893 43.4808 65.7096 43.2782 65.6861L41.0026 65.4216L38.7279 63.1469H41.9127L43.7329 64.5881C43.8928 64.7148 44.1251 64.6878 44.2518 64.5278C44.3784 64.3679 44.3514 64.1356 44.1915 64.0089L43.1028 63.1469H43.7814L45.6016 64.5881C45.7615 64.7148 45.9938 64.6878 46.1205 64.5278C46.2471 64.3679 46.2201 64.1356 46.0602 64.0089L44.9715 63.1469H46.1542C46.3582 63.1469 46.5236 62.9816 46.5236 62.7776C46.5236 62.5735 46.3582 62.4082 46.1542 62.4082H44.9956L46.0602 61.5653C46.2201 61.4386 46.2471 61.2063 46.1205 61.0464C45.9938 60.8864 45.7615 60.8594 45.6016 60.9861L43.8055 62.4082H43.1269L44.1915 61.5653C44.3514 61.4386 44.3784 61.2063 44.2518 61.0464C44.1251 60.8864 43.8928 60.8594 43.7329 60.9861L41.9368 62.4082H38.7199L40.9719 60.1562L43.2781 59.8881C43.4808 59.8646 43.6259 59.6812 43.6024 59.4786C43.5788 59.2759 43.3955 59.1307 43.1928 59.1543L41.8135 59.3146L42.2933 58.8348L44.5995 58.5668C44.8021 58.5432 44.9473 58.3599 44.9238 58.1572C44.9002 57.9546 44.7168 57.8094 44.5142 57.8329L43.1348 57.9932L43.9711 57.1569C44.1154 57.0127 44.1154 56.7788 43.9711 56.6345C43.8269 56.4903 43.593 56.4903 43.4487 56.6345L42.6295 57.4537L42.7863 56.105C42.8098 55.9024 42.6646 55.719 42.462 55.6954C42.2594 55.6719 42.076 55.8171 42.0524 56.0197L41.788 58.2953L41.3082 58.7751L41.4649 57.4264C41.4885 57.2237 41.3433 57.0404 41.1406 57.0168C40.938 56.9933 40.7546 57.1384 40.7311 57.3411L40.4666 59.6166L38.1919 61.8913V58.7065L39.6331 56.8863C39.7598 56.7263 39.7328 56.494 39.5728 56.3674C39.4129 56.2407 39.1806 56.2677 39.0539 56.4277L38.1919 57.5164V56.8378L39.6331 55.0176C39.7598 54.8577 39.7328 54.6253 39.5728 54.4987C39.4129 54.3721 39.1805 54.3991 39.0539 54.559L38.1919 55.6477V54.465C38.1919 54.261 38.0266 54.0956 37.8225 54.0956Z" fill="url(#paint2_linear_312_2369)"/>
<g filter="url(#filter0_b_312_2369)">
<mask id="path-4-outside-1_312_2369" maskUnits="userSpaceOnUse" x="11" y="12" width="78" height="48" fill="black">
<rect fill="white" x="11" y="12" width="78" height="48"/>
<path fill-rule="evenodd" clip-rule="evenodd" d="M66.2975 34.0709C66.2975 34.7716 66.2612 35.4638 66.1902 36.1459C68.381 34.2666 71.2424 33.129 74.3729 33.129C81.2655 33.129 86.8531 38.6439 86.8531 45.4469C86.8531 52.2499 81.2655 57.7648 74.3729 57.7648H25.8573C25.8539 57.7648 25.8506 57.7648 25.8472 57.7648C25.8438 57.7648 25.8405 57.7648 25.8371 57.7648H25.7738V57.7646C18.7123 57.7256 13 52.0635 13 45.0846C13 38.1313 18.6703 32.4852 25.696 32.4053C26.5538 22.0997 35.2997 14 45.9622 14C57.1931 14 66.2975 22.9861 66.2975 34.0709Z"/>
</mask>
<path fill-rule="evenodd" clip-rule="evenodd" d="M66.2975 34.0709C66.2975 34.7716 66.2612 35.4638 66.1902 36.1459C68.381 34.2666 71.2424 33.129 74.3729 33.129C81.2655 33.129 86.8531 38.6439 86.8531 45.4469C86.8531 52.2499 81.2655 57.7648 74.3729 57.7648H25.8573C25.8539 57.7648 25.8506 57.7648 25.8472 57.7648C25.8438 57.7648 25.8405 57.7648 25.8371 57.7648H25.7738V57.7646C18.7123 57.7256 13 52.0635 13 45.0846C13 38.1313 18.6703 32.4852 25.696 32.4053C26.5538 22.0997 35.2997 14 45.9622 14C57.1931 14 66.2975 22.9861 66.2975 34.0709Z" fill="url(#paint3_linear_312_2369)"/>
<path d="M66.1902 36.1459L64.2009 35.9389L63.6812 40.9331L67.4923 37.664L66.1902 36.1459ZM25.7738 57.7648H23.7738V59.7648H25.7738V57.7648ZM25.7738 57.7646H27.7738V55.7756L25.7848 55.7646L25.7738 57.7646ZM25.696 32.4053L25.7188 34.4051L27.5382 34.3844L27.6891 32.5712L25.696 32.4053ZM68.1794 36.3529C68.2576 35.6022 68.2975 34.8408 68.2975 34.0709H64.2975C64.2975 34.7023 64.2648 35.3255 64.2009 35.9389L68.1794 36.3529ZM74.3729 31.129C70.7497 31.129 67.4299 32.4475 64.888 34.6279L67.4923 37.664C69.3322 36.0858 71.735 35.129 74.3729 35.129V31.129ZM88.8531 45.4469C88.8531 37.5147 82.3453 31.129 74.3729 31.129V35.129C80.1857 35.129 84.8531 39.773 84.8531 45.4469H88.8531ZM74.3729 59.7648C82.3453 59.7648 88.8531 53.379 88.8531 45.4469H84.8531C84.8531 51.1207 80.1857 55.7648 74.3729 55.7648V59.7648ZM74.3729 55.7648H25.8573V59.7648H74.3729V55.7648ZM25.8472 59.7648C25.8495 59.7648 25.8518 59.7648 25.8534 59.7648C25.8551 59.7648 25.8563 59.7648 25.8573 59.7648V55.7648C25.8549 55.7648 25.8527 55.7648 25.8511 55.7648C25.8493 55.7648 25.8482 55.7648 25.8472 55.7648V59.7648ZM25.8371 59.7648C25.8381 59.7648 25.8393 59.7648 25.841 59.7648C25.8426 59.7648 25.8449 59.7648 25.8472 59.7648V55.7648C25.8462 55.7648 25.8451 55.7648 25.8433 55.7648C25.8417 55.7648 25.8395 55.7648 25.8371 55.7648V59.7648ZM25.8371 55.7648H25.7738V59.7648H25.8371V55.7648ZM27.7738 57.7648V57.7646H23.7738V57.7648H27.7738ZM11 45.0846C11 53.1888 17.6261 59.7196 25.7627 59.7645L25.7848 55.7646C19.7984 55.7315 15 50.9382 15 45.0846H11ZM25.6732 30.4054C17.5776 30.4975 11 37.0102 11 45.0846H15C15 39.2525 19.7631 34.4729 25.7188 34.4051L25.6732 30.4054ZM45.9622 12C34.2725 12 24.648 20.8841 23.7029 32.2394L27.6891 32.5712C28.4595 23.3152 36.3268 16 45.9622 16V12ZM68.2975 34.0709C68.2975 21.8569 58.2729 12 45.9622 12V16C56.1133 16 64.2975 24.1152 64.2975 34.0709H68.2975Z" fill="url(#paint4_linear_312_2369)" mask="url(#path-4-outside-1_312_2369)"/>
</g>
<defs>
<filter id="filter0_b_312_2369" x="1" y="2" width="97.853" height="67.7648" filterUnits="userSpaceOnUse" color-interpolation-filters="sRGB">
<feFlood flood-opacity="0" result="BackgroundImageFix"/>
<feGaussianBlur in="BackgroundImageFix" stdDeviation="5"/>
<feComposite in2="SourceAlpha" operator="in" result="effect1_backgroundBlur_312_2369"/>
<feBlend mode="normal" in="SourceGraphic" in2="effect1_backgroundBlur_312_2369" result="shape"/>
</filter>
<linearGradient id="paint0_linear_312_2369" x1="68.2468" y1="46.9825" x2="53.2377" y2="61.6255" gradientUnits="userSpaceOnUse">
<stop stop-color="#D6E9FF"/>
<stop offset="1" stop-color="#2898FF"/>
</linearGradient>
<linearGradient id="paint1_linear_312_2369" x1="56.424" y1="72.6697" x2="46.0656" y2="82.7754" gradientUnits="userSpaceOnUse">
<stop stop-color="#D6E9FF"/>
<stop offset="1" stop-color="#2898FF"/>
</linearGradient>
<linearGradient id="paint2_linear_312_2369" x1="44.2543" y1="55.5297" x2="31.7819" y2="67.6978" gradientUnits="userSpaceOnUse">
<stop stop-color="#D6E9FF"/>
<stop offset="1" stop-color="#2898FF"/>
</linearGradient>
<linearGradient id="paint3_linear_312_2369" x1="35.9543" y1="13.8175" x2="53.3213" y2="58.1033" gradientUnits="userSpaceOnUse">
<stop stop-color="white"/>
<stop offset="0.708333" stop-color="#9DDCFF" stop-opacity="0.69"/>
</linearGradient>
<linearGradient id="paint4_linear_312_2369" x1="47.5313" y1="-1.15512" x2="71.5043" y2="75.858" gradientUnits="userSpaceOnUse">
<stop stop-color="white"/>
<stop offset="0.713542" stop-color="#85C6EC" stop-opacity="0.71"/>
</linearGradient>
</defs>
</svg>
