<svg width="100" height="100" viewBox="0 0 100 100" fill="none" xmlns="http://www.w3.org/2000/svg">
<g filter="url(#filter0_b_312_2363)">
<mask id="path-1-outside-1_312_2363" maskUnits="userSpaceOnUse" x="49" y="27" width="46" height="29" fill="black">
<rect fill="white" x="49" y="27" width="46" height="29"/>
<path fill-rule="evenodd" clip-rule="evenodd" d="M81.3101 40.4652C81.3101 40.8655 81.2895 41.2609 81.2491 41.6505C82.495 40.577 84.1223 39.9272 85.9026 39.9272C89.8224 39.9272 93 43.0775 93 46.9636C93 50.8497 89.8224 54 85.9026 54H58.3115C58.3097 54 58.3079 54 58.3062 54C58.3044 54 58.3026 54 58.3008 54H58.2644V53.9999C54.2485 53.9776 51 50.7432 51 46.7566C51 42.7847 54.2247 39.5594 58.2202 39.5137C58.708 33.6268 63.6817 29 69.7455 29C76.1325 29 81.3101 34.1332 81.3101 40.4652Z"/>
</mask>
<path fill-rule="evenodd" clip-rule="evenodd" d="M81.3101 40.4652C81.3101 40.8655 81.2895 41.2609 81.2491 41.6505C82.495 40.577 84.1223 39.9272 85.9026 39.9272C89.8224 39.9272 93 43.0775 93 46.9636C93 50.8497 89.8224 54 85.9026 54H58.3115C58.3097 54 58.3079 54 58.3062 54C58.3044 54 58.3026 54 58.3008 54H58.2644V53.9999C54.2485 53.9776 51 50.7432 51 46.7566C51 42.7847 54.2247 39.5594 58.2202 39.5137C58.708 33.6268 63.6817 29 69.7455 29C76.1325 29 81.3101 34.1332 81.3101 40.4652Z" fill="url(#paint0_linear_312_2363)"/>
<path d="M81.2491 41.6505L79.2597 41.4445L78.741 46.4515L82.5546 43.1657L81.2491 41.6505ZM58.2644 54H56.2644V56H58.2644V54ZM58.2644 53.9999H60.2644V52.0109L58.2755 51.9999L58.2644 53.9999ZM58.2202 39.5137L58.243 41.5136L60.063 41.4928L60.2133 39.6789L58.2202 39.5137ZM83.2384 41.8566C83.2859 41.3986 83.3101 40.9344 83.3101 40.4652H79.3101C79.3101 40.7965 79.293 41.1231 79.2597 41.4445L83.2384 41.8566ZM85.9026 37.9272C83.627 37.9272 81.5402 38.7597 79.9436 40.1354L82.5546 43.1657C83.4498 42.3943 84.6175 41.9272 85.9026 41.9272V37.9272ZM95 46.9636C95 41.9567 90.9106 37.9272 85.9026 37.9272V41.9272C88.7341 41.9272 91 44.1983 91 46.9636H95ZM85.9026 56C90.9106 56 95 51.9705 95 46.9636H91C91 49.7289 88.7341 52 85.9026 52V56ZM85.9026 52H58.3115V56H85.9026V52ZM58.3062 56C58.3077 56 58.3091 56 58.3099 56C58.3109 56 58.3113 56 58.3115 56V52C58.31 52 58.3086 52 58.3078 52C58.3068 52 58.3064 52 58.3062 52V56ZM58.3008 56C58.3011 56 58.3014 56 58.3024 56C58.3032 56 58.3046 56 58.3062 56V52C58.3059 52 58.3055 52 58.3045 52C58.3037 52 58.3023 52 58.3008 52V56ZM58.3008 52H58.2644V56H58.3008V52ZM60.2644 54V53.9999H56.2644V54H60.2644ZM49 46.7566C49 51.8602 53.154 55.9716 58.2533 55.9999L58.2755 51.9999C55.3431 51.9836 53 49.6263 53 46.7566H49ZM58.1973 37.5139C53.1236 37.5719 49 41.6718 49 46.7566H53C53 43.8975 55.3258 41.547 58.243 41.5136L58.1973 37.5139ZM69.7455 27C62.6469 27 56.8012 32.419 56.227 39.3486L60.2133 39.6789C60.6148 34.8346 64.7166 31 69.7455 31V27ZM83.3101 40.4652C83.3101 33.0124 77.2207 27 69.7455 27V31C75.0442 31 79.3101 35.254 79.3101 40.4652H83.3101Z" fill="url(#paint1_linear_312_2363)" mask="url(#path-1-outside-1_312_2363)"/>
</g>
<g filter="url(#filter1_b_312_2363)">
<mask id="path-3-outside-2_312_2363" maskUnits="userSpaceOnUse" x="5" y="28" width="74" height="45" fill="black">
<rect fill="white" x="5" y="28" width="74" height="45"/>
<path fill-rule="evenodd" clip-rule="evenodd" d="M57.5169 48.803C57.5169 49.4594 57.4824 50.1079 57.4151 50.7469C59.4917 48.9863 62.2038 47.9205 65.171 47.9205C71.704 47.9205 77 53.087 77 59.4603C77 65.8335 71.704 71 65.171 71H19.1868C19.1835 71 19.1802 71 19.1769 71C19.1736 71 19.1704 71 19.1671 71H19.1074V70.9998C12.4142 70.9633 7 65.6589 7 59.1209C7 52.6069 12.3745 47.3175 19.0336 47.2425C19.8466 37.588 28.1362 30 38.2425 30C48.8875 30 57.5169 38.4184 57.5169 48.803Z"/>
</mask>
<path fill-rule="evenodd" clip-rule="evenodd" d="M57.5169 48.803C57.5169 49.4594 57.4824 50.1079 57.4151 50.7469C59.4917 48.9863 62.2038 47.9205 65.171 47.9205C71.704 47.9205 77 53.087 77 59.4603C77 65.8335 71.704 71 65.171 71H19.1868C19.1835 71 19.1802 71 19.1769 71C19.1736 71 19.1704 71 19.1671 71H19.1074V70.9998C12.4142 70.9633 7 65.6589 7 59.1209C7 52.6069 12.3745 47.3175 19.0336 47.2425C19.8466 37.588 28.1362 30 38.2425 30C48.8875 30 57.5169 38.4184 57.5169 48.803Z" fill="url(#paint2_linear_312_2363)"/>
<path d="M57.4151 50.7469L55.4261 50.5375L54.9039 55.4981L58.7085 52.2724L57.4151 50.7469ZM19.1074 71H17.1074V73H19.1074V71ZM19.1074 70.9998H21.1074V69.0107L19.1183 68.9998L19.1074 70.9998ZM19.0336 47.2425L19.0561 49.2424L20.874 49.222L21.0266 47.4104L19.0336 47.2425ZM59.4041 50.9563C59.4787 50.2478 59.5169 49.5294 59.5169 48.803H55.5169C55.5169 49.3893 55.4861 49.9679 55.4261 50.5375L59.4041 50.9563ZM65.171 45.9205C61.7177 45.9205 58.5502 47.1625 56.1218 49.2214L58.7085 52.2724C60.4333 50.8101 62.6898 49.9205 65.171 49.9205V45.9205ZM79 59.4603C79 51.9361 72.7616 45.9205 65.171 45.9205V49.9205C70.6464 49.9205 75 54.238 75 59.4603H79ZM65.171 73C72.7616 73 79 66.9844 79 59.4603H75C75 64.6825 70.6464 69 65.171 69V73ZM65.171 69H19.1868V73H65.171V69ZM19.1769 73C19.1793 73 19.1815 73 19.183 73C19.1848 73 19.1858 73 19.1868 73V69C19.1845 69 19.1823 69 19.1807 69C19.179 69 19.1779 69 19.1769 69V73ZM19.1671 73C19.168 73 19.1691 73 19.1708 73C19.1724 73 19.1746 73 19.1769 73V69C19.176 69 19.1749 69 19.1732 69C19.1716 69 19.1694 69 19.1671 69V73ZM19.1671 69H19.1074V73H19.1671V69ZM21.1074 71V70.9998H17.1074V71H21.1074ZM5 59.1209C5 66.8058 11.3502 72.9575 19.0964 72.9998L19.1183 68.9998C13.4782 68.9691 9 64.512 9 59.1209H5ZM19.0111 45.2427C11.3038 45.3294 5 51.4642 5 59.1209H9C9 53.7495 13.4453 49.3055 19.0561 49.2424L19.0111 45.2427ZM38.2425 28C27.1293 28 17.9436 36.3522 17.0407 47.0747L21.0266 47.4104C21.7497 38.8238 29.1432 32 38.2425 32V28ZM59.5169 48.803C59.5169 37.2674 49.9451 28 38.2425 28V32C47.8299 32 55.5169 39.5693 55.5169 48.803H59.5169Z" fill="url(#paint3_linear_312_2363)" mask="url(#path-3-outside-2_312_2363)"/>
</g>
<defs>
<filter id="filter0_b_312_2363" x="39" y="17" width="66" height="49" filterUnits="userSpaceOnUse" color-interpolation-filters="sRGB">
<feFlood flood-opacity="0" result="BackgroundImageFix"/>
<feGaussianBlur in="BackgroundImageFix" stdDeviation="5"/>
<feComposite in2="SourceAlpha" operator="in" result="effect1_backgroundBlur_312_2363"/>
<feBlend mode="normal" in="SourceGraphic" in2="effect1_backgroundBlur_312_2363" result="shape"/>
</filter>
<filter id="filter1_b_312_2363" x="-5" y="18" width="94" height="65" filterUnits="userSpaceOnUse" color-interpolation-filters="sRGB">
<feFlood flood-opacity="0" result="BackgroundImageFix"/>
<feGaussianBlur in="BackgroundImageFix" stdDeviation="5"/>
<feComposite in2="SourceAlpha" operator="in" result="effect1_backgroundBlur_312_2363"/>
<feBlend mode="normal" in="SourceGraphic" in2="effect1_backgroundBlur_312_2363" result="shape"/>
</filter>
<linearGradient id="paint0_linear_312_2363" x1="64.0541" y1="28.8957" x2="74.0071" y2="54.1632" gradientUnits="userSpaceOnUse">
<stop stop-color="white"/>
<stop offset="0.708333" stop-color="#9DDCFF" stop-opacity="0.69"/>
</linearGradient>
<linearGradient id="paint1_linear_312_2363" x1="70.6378" y1="20.3429" x2="84.3824" y2="64.3007" gradientUnits="userSpaceOnUse">
<stop stop-color="white"/>
<stop offset="0.713542" stop-color="#85C6EC" stop-opacity="0.71"/>
</linearGradient>
<linearGradient id="paint2_linear_312_2363" x1="28.7568" y1="29.829" x2="44.8873" y2="71.4451" gradientUnits="userSpaceOnUse">
<stop stop-color="white"/>
<stop offset="0.708333" stop-color="#9DDCFF" stop-opacity="0.69"/>
</linearGradient>
<linearGradient id="paint3_linear_312_2363" x1="39.7297" y1="15.8023" x2="61.973" y2="88.0976" gradientUnits="userSpaceOnUse">
<stop stop-color="white"/>
<stop offset="0.713542" stop-color="#85C6EC" stop-opacity="0.71"/>
</linearGradient>
</defs>
</svg>
