<svg width="100" height="100" viewBox="0 0 100 100" fill="none" xmlns="http://www.w3.org/2000/svg">
<path d="M28.081 75.9475C28.3315 75.005 29.2985 74.4441 30.241 74.6945C31.1835 74.945 31.7444 75.9121 31.4939 76.8546L29.8813 82.922C29.6309 83.8645 28.6638 84.4254 27.7213 84.175C26.7789 83.9245 26.2179 82.9574 26.4684 82.0149L28.081 75.9475Z" fill="url(#paint0_linear_452_2127)"/>
<path d="M39.5243 75.9243C39.7748 74.9818 40.7418 74.4209 41.6843 74.6714C42.6268 74.9218 43.1877 75.8889 42.9372 76.8314L41.3246 82.8988C41.0741 83.8413 40.1071 84.4023 39.1646 84.1518C38.2221 83.9013 37.6612 82.9342 37.9117 81.9918L39.5243 75.9243Z" fill="url(#paint1_linear_452_2127)"/>
<path d="M50.9676 75.9011C51.2181 74.9587 52.1852 74.3977 53.1276 74.6482C54.0701 74.8987 54.6311 75.8658 54.3806 76.8082L52.768 82.8757C52.5175 83.8181 51.5504 84.3791 50.6079 84.1286C49.6655 83.8781 49.1045 82.9111 49.355 81.9686L50.9676 75.9011Z" fill="url(#paint2_linear_452_2127)"/>
<path d="M62.411 75.878C62.6614 74.9355 63.6285 74.3745 64.571 74.625C65.5134 74.8755 66.0744 75.8426 65.8239 76.785L64.2113 82.8525C63.9608 83.795 62.9937 84.3559 62.0513 84.1054C61.1088 83.855 60.5479 82.8879 60.7984 81.9454L62.411 75.878Z" fill="url(#paint3_linear_452_2127)"/>
<path d="M29.6339 70.1519C29.8844 69.2095 30.8515 68.6485 31.7939 68.899C32.7364 69.1495 33.2973 70.1165 33.0469 71.059L31.4343 77.1265C31.1838 78.0689 30.2167 78.6299 29.2742 78.3794C28.3318 78.1289 27.7708 77.1618 28.0213 76.2194L29.6339 70.1519Z" fill="url(#paint4_linear_452_2127)"/>
<path d="M41.0772 70.1287C41.3277 69.1863 42.2947 68.6253 43.2372 68.8758C44.1797 69.1263 44.7406 70.0934 44.4901 71.0358L42.8775 77.1033C42.627 78.0458 41.66 78.6067 40.7175 78.3562C39.7751 78.1057 39.2141 77.1387 39.4646 76.1962L41.0772 70.1287Z" fill="url(#paint5_linear_452_2127)"/>
<path d="M52.5205 70.1056C52.771 69.1631 53.7381 68.6021 54.6806 68.8526C55.623 69.1031 56.184 70.0702 55.9335 71.0127L54.3209 77.0801C54.0704 78.0226 53.1033 78.5835 52.1609 78.3331C51.2184 78.0826 50.6574 77.1155 50.9079 76.173L52.5205 70.1056Z" fill="url(#paint6_linear_452_2127)"/>
<path d="M63.9639 70.0824C64.2144 69.1399 65.1814 68.579 66.1239 68.8295C67.0664 69.08 67.6273 70.047 67.3768 70.9895L65.7642 77.057C65.5137 77.9994 64.5467 78.5604 63.6042 78.3099C62.6617 78.0594 62.1008 77.0923 62.3513 76.1499L63.9639 70.0824Z" fill="url(#paint7_linear_452_2127)"/>
<path d="M31.1868 64.3564C31.4373 63.4139 32.4044 62.8529 33.3468 63.1034C34.2893 63.3539 34.8503 64.321 34.5998 65.2634L32.9872 71.3309C32.7367 72.2734 31.7696 72.8343 30.8271 72.5839C29.8847 72.3334 29.3237 71.3663 29.5742 70.4238L31.1868 64.3564Z" fill="url(#paint8_linear_452_2127)"/>
<path d="M42.6301 64.3332C42.8806 63.3907 43.8477 62.8298 44.7901 63.0802C45.7326 63.3307 46.2935 64.2978 46.0431 65.2403L44.4304 71.3077C44.18 72.2502 43.2129 72.8112 42.2704 72.5607C41.328 72.3102 40.767 71.3431 41.0175 70.4006L42.6301 64.3332Z" fill="url(#paint9_linear_452_2127)"/>
<path d="M54.0734 64.31C54.3239 63.3676 55.291 62.8066 56.2335 63.0571C57.1759 63.3076 57.7369 64.2746 57.4864 65.2171L55.8738 71.2846C55.6233 72.227 54.6562 72.788 53.7138 72.5375C52.7713 72.287 52.2104 71.3199 52.4608 70.3775L54.0734 64.31Z" fill="url(#paint10_linear_452_2127)"/>
<path d="M65.5168 64.2868C65.7673 63.3444 66.7343 62.7834 67.6768 63.0339C68.6193 63.2844 69.1802 64.2515 68.9297 65.1939L67.3171 71.2614C67.0666 72.2039 66.0996 72.7648 65.1571 72.5143C64.2147 72.2639 63.6537 71.2968 63.9042 70.3543L65.5168 64.2868Z" fill="url(#paint11_linear_452_2127)"/>
<g filter="url(#filter0_b_452_2127)">
<mask id="path-2-outside-1_452_2127" maskUnits="userSpaceOnUse" x="11.7015" y="19.4866" width="77" height="48" fill="black">
<rect fill="white" x="11.7015" y="19.4866" width="77" height="48"/>
<path fill-rule="evenodd" clip-rule="evenodd" d="M66.0926 41.2162C66.0926 41.9049 66.0568 42.5854 65.9871 43.2559C68.1407 41.4085 70.9533 40.2902 74.0307 40.2902C80.806 40.2902 86.2985 45.7113 86.2985 52.3986C86.2985 59.0859 80.806 64.5071 74.0307 64.5071H26.3402C26.3368 64.5071 26.3335 64.5071 26.3302 64.5071C26.3269 64.5071 26.3235 64.5071 26.3202 64.5071H26.258V64.5069C19.3166 64.4685 13.7015 58.9027 13.7015 52.0425C13.7015 45.2075 19.2754 39.6574 26.1816 39.5788C27.0247 29.4485 35.6219 21.4866 46.1031 21.4866C57.143 21.4866 66.0926 30.3198 66.0926 41.2162Z"/>
</mask>
<path fill-rule="evenodd" clip-rule="evenodd" d="M66.0926 41.2162C66.0926 41.9049 66.0568 42.5854 65.9871 43.2559C68.1407 41.4085 70.9533 40.2902 74.0307 40.2902C80.806 40.2902 86.2985 45.7113 86.2985 52.3986C86.2985 59.0859 80.806 64.5071 74.0307 64.5071H26.3402C26.3368 64.5071 26.3335 64.5071 26.3302 64.5071C26.3269 64.5071 26.3235 64.5071 26.3202 64.5071H26.258V64.5069C19.3166 64.4685 13.7015 58.9027 13.7015 52.0425C13.7015 45.2075 19.2754 39.6574 26.1816 39.5788C27.0247 29.4485 35.6219 21.4866 46.1031 21.4866C57.143 21.4866 66.0926 30.3198 66.0926 41.2162Z" fill="url(#paint12_linear_452_2127)"/>
<path d="M65.9871 43.2559L63.9978 43.0489L63.4781 48.043L67.2892 44.7739L65.9871 43.2559ZM26.258 64.5071H24.258V66.5071H26.258V64.5071ZM26.258 64.5069H28.258V62.5179L26.2691 62.5069L26.258 64.5069ZM26.1816 39.5788L26.2043 41.5787L28.0237 41.558L28.1747 39.7447L26.1816 39.5788ZM67.9763 43.4629C68.0532 42.7237 68.0926 41.9742 68.0926 41.2162H64.0926C64.0926 41.8356 64.0604 42.447 63.9978 43.0489L67.9763 43.4629ZM74.0307 38.2902C70.4607 38.2902 67.1896 39.5894 64.6849 41.7379L67.2892 44.7739C69.0918 43.2277 71.446 42.2902 74.0307 42.2902V38.2902ZM88.2985 52.3986C88.2985 44.5822 81.8858 38.2902 74.0307 38.2902V42.2902C79.7262 42.2902 84.2985 46.8405 84.2985 52.3986H88.2985ZM74.0307 66.5071C81.8858 66.5071 88.2985 60.2151 88.2985 52.3986H84.2985C84.2985 57.9568 79.7262 62.5071 74.0307 62.5071V66.5071ZM74.0307 62.5071H26.3402V66.5071H74.0307V62.5071ZM26.3302 66.5071C26.3325 66.5071 26.3348 66.5071 26.3363 66.5071C26.3381 66.5071 26.3392 66.5071 26.3402 66.5071V62.5071C26.3378 62.5071 26.3356 62.5071 26.334 62.5071C26.3323 62.5071 26.3312 62.5071 26.3302 62.5071V66.5071ZM26.3202 66.5071C26.3212 66.5071 26.3223 66.5071 26.324 66.5071C26.3256 66.5071 26.3279 66.5071 26.3302 66.5071V62.5071C26.3292 62.5071 26.3281 62.5071 26.3263 62.5071C26.3248 62.5071 26.3225 62.5071 26.3202 62.5071V66.5071ZM26.3202 62.5071H26.258V66.5071H26.3202V62.5071ZM28.258 64.5071V64.5069H24.258V64.5071H28.258ZM11.7015 52.0425C11.7015 60.028 18.2305 66.4626 26.247 66.5068L26.2691 62.5069C20.4027 62.4745 15.7015 57.7775 15.7015 52.0425H11.7015ZM26.1588 37.5789C18.1826 37.6697 11.7015 44.0864 11.7015 52.0425H15.7015C15.7015 46.3286 20.3682 41.6451 26.2043 41.5787L26.1588 37.5789ZM46.1031 19.4866C34.5947 19.4866 25.119 28.2329 24.1884 39.4129L28.1747 39.7447C28.9305 30.6641 36.649 23.4866 46.1031 23.4866V19.4866ZM68.0926 41.2162C68.0926 29.1907 58.2228 19.4866 46.1031 19.4866V23.4866C56.0632 23.4866 64.0926 31.449 64.0926 41.2162H68.0926Z" fill="url(#paint13_linear_452_2127)" mask="url(#path-2-outside-1_452_2127)"/>
</g>
<defs>
<filter id="filter0_b_452_2127" x="1.70148" y="9.48657" width="96.597" height="67.0205" filterUnits="userSpaceOnUse" color-interpolation-filters="sRGB">
<feFlood flood-opacity="0" result="BackgroundImageFix"/>
<feGaussianBlur in="BackgroundImageFix" stdDeviation="5"/>
<feComposite in2="SourceAlpha" operator="in" result="effect1_backgroundBlur_452_2127"/>
<feBlend mode="normal" in="SourceGraphic" in2="effect1_backgroundBlur_452_2127" result="shape"/>
</filter>
<linearGradient id="paint0_linear_452_2127" x1="55" y1="85" x2="61.5" y2="62.5" gradientUnits="userSpaceOnUse">
<stop stop-color="#3981EE"/>
<stop offset="1" stop-color="#92BDFF"/>
</linearGradient>
<linearGradient id="paint1_linear_452_2127" x1="55" y1="85" x2="61.5" y2="62.5" gradientUnits="userSpaceOnUse">
<stop stop-color="#3981EE"/>
<stop offset="1" stop-color="#92BDFF"/>
</linearGradient>
<linearGradient id="paint2_linear_452_2127" x1="55" y1="85" x2="61.5" y2="62.5" gradientUnits="userSpaceOnUse">
<stop stop-color="#3981EE"/>
<stop offset="1" stop-color="#92BDFF"/>
</linearGradient>
<linearGradient id="paint3_linear_452_2127" x1="55" y1="85" x2="61.5" y2="62.5" gradientUnits="userSpaceOnUse">
<stop stop-color="#3981EE"/>
<stop offset="1" stop-color="#92BDFF"/>
</linearGradient>
<linearGradient id="paint4_linear_452_2127" x1="55" y1="85" x2="61.5" y2="62.5" gradientUnits="userSpaceOnUse">
<stop stop-color="#3981EE"/>
<stop offset="1" stop-color="#92BDFF"/>
</linearGradient>
<linearGradient id="paint5_linear_452_2127" x1="55" y1="85" x2="61.5" y2="62.5" gradientUnits="userSpaceOnUse">
<stop stop-color="#3981EE"/>
<stop offset="1" stop-color="#92BDFF"/>
</linearGradient>
<linearGradient id="paint6_linear_452_2127" x1="55" y1="85" x2="61.5" y2="62.5" gradientUnits="userSpaceOnUse">
<stop stop-color="#3981EE"/>
<stop offset="1" stop-color="#92BDFF"/>
</linearGradient>
<linearGradient id="paint7_linear_452_2127" x1="55" y1="85" x2="61.5" y2="62.5" gradientUnits="userSpaceOnUse">
<stop stop-color="#3981EE"/>
<stop offset="1" stop-color="#92BDFF"/>
</linearGradient>
<linearGradient id="paint8_linear_452_2127" x1="55" y1="85" x2="61.5" y2="62.5" gradientUnits="userSpaceOnUse">
<stop stop-color="#3981EE"/>
<stop offset="1" stop-color="#92BDFF"/>
</linearGradient>
<linearGradient id="paint9_linear_452_2127" x1="55" y1="85" x2="61.5" y2="62.5" gradientUnits="userSpaceOnUse">
<stop stop-color="#3981EE"/>
<stop offset="1" stop-color="#92BDFF"/>
</linearGradient>
<linearGradient id="paint10_linear_452_2127" x1="55" y1="85" x2="61.5" y2="62.5" gradientUnits="userSpaceOnUse">
<stop stop-color="#3981EE"/>
<stop offset="1" stop-color="#92BDFF"/>
</linearGradient>
<linearGradient id="paint11_linear_452_2127" x1="55" y1="85" x2="61.5" y2="62.5" gradientUnits="userSpaceOnUse">
<stop stop-color="#3981EE"/>
<stop offset="1" stop-color="#92BDFF"/>
</linearGradient>
<linearGradient id="paint12_linear_452_2127" x1="36.2654" y1="21.3072" x2="53.337" y2="64.8398" gradientUnits="userSpaceOnUse">
<stop stop-color="white"/>
<stop offset="0.708333" stop-color="#9DDCFF" stop-opacity="0.69"/>
</linearGradient>
<linearGradient id="paint13_linear_452_2127" x1="47.6455" y1="6.58919" x2="71.2108" y2="82.2926" gradientUnits="userSpaceOnUse">
<stop stop-color="white"/>
<stop offset="0.713542" stop-color="#85C6EC" stop-opacity="0.71"/>
</linearGradient>
</defs>
</svg>
