<svg width="100" height="100" viewBox="0 0 100 100" fill="none" xmlns="http://www.w3.org/2000/svg">
<path fill-rule="evenodd" clip-rule="evenodd" d="M50.2714 19C49.5601 19 48.9834 19.5766 48.9834 20.2879V24.3869L46.0425 20.6312C45.6021 20.0688 44.7929 19.9747 44.2353 20.4212C43.6776 20.8677 43.5825 21.6855 44.023 22.248L48.9834 28.5826V30.9747L46.0425 27.2191C45.6021 26.6566 44.793 26.5626 44.2353 27.0091C43.6776 27.4555 43.5826 28.2734 44.023 28.8358L48.9834 35.1704V46.4159L40.741 38.0819L39.8189 30.0595C39.7368 29.3451 39.0975 28.8333 38.3909 28.9163C37.6843 28.9993 37.1781 29.6458 37.2602 30.3602L37.8067 35.115L36.1338 33.4234L35.2117 25.4011C35.1296 24.6867 34.4902 24.1749 33.7837 24.2579C33.0771 24.3409 32.5709 24.9874 32.653 25.7018L33.1995 30.4566L30.7213 27.9508C30.2183 27.4422 29.4028 27.4422 28.8998 27.9508C28.3968 28.4594 28.3968 29.2839 28.8998 29.7925L31.4378 32.3586L26.6283 31.7935C25.9218 31.7105 25.2824 32.2223 25.2003 32.9367C25.1182 33.6511 25.6244 34.2976 26.331 34.3806L34.372 35.3255L36.045 37.017L31.2355 36.4519C30.529 36.3689 29.8896 36.8807 29.8075 37.5951C29.7254 38.3095 30.2316 38.956 30.9382 39.039L38.9792 39.9838L47.2093 48.3054H35.4581L29.1983 43.294C28.6392 42.8464 27.828 42.9407 27.3865 43.5046C26.9449 44.0684 27.0402 44.8884 27.5993 45.336L31.3085 48.3054H28.9426L22.6827 43.294C22.1236 42.8464 21.3125 42.9407 20.8709 43.5046C20.4294 44.0684 20.5246 44.8884 21.0837 45.336L24.793 48.3054H21.3023C20.583 48.3054 20 48.8885 20 49.6077C20 50.3269 20.583 50.91 21.3023 50.91H24.8771L21.0837 53.9468C20.5246 54.3944 20.4294 55.2144 20.8709 55.7782C21.3125 56.3421 22.1236 56.4364 22.6827 55.9888L29.0267 50.91H31.3927L27.5993 53.9468C27.0402 54.3944 26.9449 55.2144 27.3865 55.7782C27.828 56.3421 28.6392 56.4364 29.1983 55.9888L35.5423 50.91H47.1814L38.8722 59.3115L30.9379 60.2438C30.2313 60.3269 29.7251 60.9733 29.8072 61.6877C29.8893 62.4021 30.5287 62.914 31.2352 62.8309L35.938 62.2783L34.2651 63.9699L26.3307 64.9022C25.6241 64.9852 25.1179 65.6317 25.2 66.3461C25.2821 67.0605 25.9214 67.5723 26.628 67.4893L31.3308 66.9367L28.8524 69.4427C28.3494 69.9512 28.3494 70.7758 28.8524 71.2844C29.3554 71.7929 30.1708 71.7929 30.6738 71.2844L33.2118 68.7182L32.6529 73.581C32.5707 74.2954 33.077 74.9419 33.7835 75.0249C34.4901 75.1079 35.1294 74.5961 35.2115 73.8817L36.146 65.7514L37.819 64.0598L37.2601 68.9227C37.178 69.6371 37.6842 70.2835 38.3907 70.3665C39.0973 70.4496 39.7366 69.9377 39.8188 69.2233L40.7532 61.0929L48.9834 52.7713V64.6529L44.023 70.9875C43.5826 71.55 43.6776 72.3678 44.2353 72.8143C44.793 73.2608 45.6021 73.1667 46.0425 72.6043L48.9834 68.8487V71.2407L44.023 77.5754C43.5826 78.1378 43.6776 78.9557 44.2353 79.4021C44.793 79.8486 45.6021 79.7546 46.0425 79.1921L48.9834 75.4365V78.9949C48.9834 79.7062 49.5601 80.2828 50.2714 80.2828C50.9827 80.2828 51.5593 79.7062 51.5593 78.9949V75.3515L54.5668 79.1921C55.0073 79.7546 55.8164 79.8486 56.3741 79.4021C56.9318 78.9557 57.0268 78.1378 56.5864 77.5754L51.5593 71.1557V68.7636L54.5668 72.6043C55.0073 73.1667 55.8164 73.2608 56.3741 72.8143C56.9318 72.3678 57.0268 71.55 56.5864 70.9875L51.5593 64.5679V52.7038L59.4783 60.7107L60.4127 68.841C60.4948 69.5554 61.1342 70.0672 61.8407 69.9842C62.5473 69.9012 63.0535 69.2547 62.9714 68.5403L62.4125 63.6775L64.0854 65.369L65.0199 73.4993C65.102 74.2137 65.7413 74.7256 66.4479 74.6425C67.1545 74.5595 67.6607 73.9131 67.5786 73.1987L67.0197 68.3359L69.9357 71.2843C70.4387 71.7929 71.2541 71.7929 71.7571 71.2843C72.2601 70.7757 72.2601 69.9512 71.7571 69.4426L68.9006 66.5543L73.6034 67.1069C74.31 67.19 74.9493 66.6781 75.0314 65.9637C75.1135 65.2493 74.6073 64.6029 73.9008 64.5198L65.9663 63.5875L64.2934 61.896L68.9963 62.4486C69.7028 62.5316 70.3422 62.0198 70.4243 61.3054C70.5064 60.591 70.0002 59.9445 69.2936 59.8615L61.3592 58.9292L53.4281 50.91H64.5324L70.8764 55.9888C71.4354 56.4364 72.2466 56.3421 72.6882 55.7782C73.1297 55.2144 73.0344 54.3944 72.4753 53.9468L68.682 50.91H71.0479L77.3919 55.9888C77.951 56.4364 78.7622 56.3421 79.2038 55.7782C79.6453 55.2144 79.55 54.3944 78.9909 53.9468L75.1976 50.91H79.3071C80.0263 50.91 80.6094 50.3269 80.6094 49.6077C80.6094 48.8885 80.0263 48.3055 79.3071 48.3055H75.2817L78.9909 45.336C79.55 44.8884 79.6453 44.0684 79.2038 43.5046C78.7622 42.9407 77.951 42.8464 77.3919 43.294L71.1321 48.3055H68.7661L72.4753 45.336C73.0344 44.8884 73.1297 44.0684 72.6882 43.5046C72.2466 42.9407 71.4354 42.8464 70.8764 43.294L64.6165 48.3055H53.4002L61.2523 40.3661L69.2933 39.4213C69.9999 39.3383 70.5061 38.6918 70.424 37.9774C70.3419 37.263 69.7025 36.7512 68.996 36.8342L64.1865 37.3993L65.8594 35.7078L73.9005 34.7629C74.6071 34.6799 75.1133 34.0334 75.0312 33.319C74.949 32.6046 74.3097 32.0928 73.6031 32.1758L68.7937 32.741L71.7097 29.7925C72.2127 29.284 72.2127 28.4594 71.7097 27.9509C71.2067 27.4423 70.3912 27.4423 69.8882 27.9509L67.0319 30.8389L67.5784 26.0841C67.6606 25.3697 67.1543 24.7232 66.4478 24.6402C65.7412 24.5572 65.1019 25.069 65.0198 25.7834L64.0977 33.8057L62.4248 35.4973L62.9713 30.7425C63.0534 30.0281 62.5472 29.3816 61.8406 29.2986C61.134 29.2156 60.4947 29.7274 60.4126 30.4418L59.4905 38.4641L51.5593 46.4834V35.2555L56.5864 28.8358C57.0268 28.2734 56.9318 27.4555 56.3741 27.0091C55.8164 26.5626 55.0073 26.6566 54.5668 27.2191L51.5593 31.0597V28.6676L56.5863 22.248C57.0268 21.6855 56.9317 20.8677 56.3741 20.4212C55.8164 19.9747 55.0073 20.0688 54.5668 20.6312L51.5593 24.4718V20.2879C51.5593 19.5766 50.9827 19 50.2714 19Z" fill="url(#paint0_linear_312_2375)"/>
<defs>
<linearGradient id="paint0_linear_312_2375" x1="72.6968" y1="24.0558" x2="28.7411" y2="66.4682" gradientUnits="userSpaceOnUse">
<stop stop-color="#D6E9FF"/>
<stop offset="1" stop-color="#2898FF"/>
</linearGradient>
</defs>
</svg>
