<svg width="100" height="100" viewBox="0 0 100 100" fill="none" xmlns="http://www.w3.org/2000/svg">
<circle cx="66.5776" cy="45.9042" r="16.9574" fill="url(#paint0_linear_312_2364)" stroke="url(#paint1_linear_312_2364)" stroke-width="2"/>
<path fill-rule="evenodd" clip-rule="evenodd" d="M66.5776 19.6885C65.7907 19.6885 65.1528 20.3264 65.1528 21.1132V25.6725C65.1528 26.4594 65.7907 27.0973 66.5776 27.0973C67.3645 27.0973 68.0024 26.4594 68.0024 25.6725V21.1132C68.0024 20.3264 67.3645 19.6885 66.5776 19.6885ZM66.5776 64.7112C65.7907 64.7112 65.1528 65.3491 65.1528 66.136V70.6952C65.1528 71.4821 65.7907 72.12 66.5776 72.12C67.3645 72.12 68.0024 71.4821 68.0024 70.6952V66.136C68.0024 65.3491 67.3645 64.7112 66.5776 64.7112ZM77.7392 23.7222C78.1327 23.0408 79.004 22.8073 79.6855 23.2007C80.367 23.5942 80.6004 24.4655 80.207 25.147L77.9274 29.0954C77.5339 29.7769 76.6626 30.0104 75.9811 29.6169C75.2996 29.2235 75.0662 28.3521 75.4596 27.6707L77.7392 23.7222ZM57.1741 62.1915C56.4927 61.7981 55.6213 62.0316 55.2279 62.713L52.9482 66.6615C52.5548 67.3429 52.7883 68.2143 53.4697 68.6077C54.1512 69.0012 55.0226 68.7677 55.416 68.0862L57.6956 64.1378C58.0891 63.4563 57.8556 62.585 57.1741 62.1915ZM87.3349 32.2748C88.0163 31.8814 88.8877 32.1149 89.2811 32.7963C89.6746 33.4778 89.4411 34.3492 88.7596 34.7426L84.8112 37.0222C84.1297 37.4157 83.2584 37.1822 82.8649 36.5007C82.4715 35.8193 82.705 34.9479 83.3864 34.5545L87.3349 32.2748ZM50.2903 55.3077C49.8969 54.6262 49.0255 54.3928 48.3441 54.7862L44.3956 57.0658C43.7142 57.4593 43.4807 58.3306 43.8741 59.0121C44.2676 59.6936 45.1389 59.927 45.8204 59.5336L49.7688 57.254C50.4503 56.8605 50.6838 55.9892 50.2903 55.3077ZM91.3686 44.4795C92.1555 44.4795 92.7934 45.1173 92.7934 45.9042C92.7934 46.6911 92.1555 47.329 91.3686 47.329H86.8094C86.0225 47.329 85.3846 46.6911 85.3846 45.9042C85.3846 45.1173 86.0225 44.4795 86.8094 44.4795H91.3686ZM47.7707 45.9042C47.7707 45.1173 47.1328 44.4795 46.3459 44.4795H41.7866C40.9998 44.4795 40.3619 45.1173 40.3619 45.9042C40.3619 46.6911 40.9998 47.329 41.7866 47.329H46.3459C47.1328 47.329 47.7707 46.6911 47.7707 45.9042ZM88.7596 57.0658C89.4411 57.4593 89.6746 58.3306 89.2811 59.0121C88.8877 59.6936 88.0163 59.927 87.3349 59.5336L83.3864 57.254C82.705 56.8605 82.4715 55.9892 82.8649 55.3077C83.2584 54.6262 84.1297 54.3928 84.8112 54.7862L88.7596 57.0658ZM50.2903 36.5007C50.6838 35.8193 50.4503 34.9479 49.7688 34.5545L45.8204 32.2748C45.1389 31.8814 44.2676 32.1149 43.8741 32.7963C43.4807 33.4778 43.7142 34.3492 44.3956 34.7426L48.3441 37.0222C49.0255 37.4157 49.8969 37.1822 50.2903 36.5007ZM80.207 66.6615C80.6004 67.3429 80.367 68.2143 79.6855 68.6077C79.004 69.0012 78.1327 68.7677 77.7392 68.0862L75.4596 64.1378C75.0662 63.4563 75.2996 62.585 75.9811 62.1915C76.6626 61.7981 77.5339 62.0316 77.9274 62.713L80.207 66.6615ZM57.1741 29.6169C57.8556 29.2235 58.0891 28.3521 57.6956 27.6706L55.416 23.7222C55.0226 23.0407 54.1512 22.8073 53.4697 23.2007C52.7883 23.5941 52.5548 24.4655 52.9482 25.147L55.2279 29.0954C55.6213 29.7769 56.4927 30.0103 57.1741 29.6169Z" fill="url(#paint2_linear_312_2364)"/>
<g filter="url(#filter0_b_312_2364)">
<mask id="path-3-outside-1_312_2364" maskUnits="userSpaceOnUse" x="5.44653" y="35.1656" width="78" height="48" fill="black">
<rect fill="white" x="5.44653" y="35.1656" width="78" height="48"/>
<path fill-rule="evenodd" clip-rule="evenodd" d="M60.1349 57.2685C60.1349 57.9703 60.0989 58.6636 60.0288 59.3468C62.1946 57.4645 65.0232 56.3251 68.118 56.3251C74.9318 56.3251 80.4555 61.8487 80.4555 68.6626C80.4555 75.4764 74.9318 81.0001 68.118 81.0001H20.1568C20.1535 81.0001 20.1502 81.0001 20.1469 81.0001C20.1436 81.0001 20.1403 81.0001 20.1369 81.0001H20.0743V80.9999C13.0935 80.9608 7.44653 75.2897 7.44653 68.2997C7.44653 61.3354 13.0521 55.6803 19.9974 55.6002C20.8454 45.2782 29.4913 37.1656 40.032 37.1656C51.1345 37.1656 60.1349 46.166 60.1349 57.2685Z"/>
</mask>
<path fill-rule="evenodd" clip-rule="evenodd" d="M60.1349 57.2685C60.1349 57.9703 60.0989 58.6636 60.0288 59.3468C62.1946 57.4645 65.0232 56.3251 68.118 56.3251C74.9318 56.3251 80.4555 61.8487 80.4555 68.6626C80.4555 75.4764 74.9318 81.0001 68.118 81.0001H20.1568C20.1535 81.0001 20.1502 81.0001 20.1469 81.0001C20.1436 81.0001 20.1403 81.0001 20.1369 81.0001H20.0743V80.9999C13.0935 80.9608 7.44653 75.2897 7.44653 68.2997C7.44653 61.3354 13.0521 55.6803 19.9974 55.6002C20.8454 45.2782 29.4913 37.1656 40.032 37.1656C51.1345 37.1656 60.1349 46.166 60.1349 57.2685Z" fill="url(#paint3_linear_312_2364)"/>
<path d="M60.0288 59.3468L58.0392 59.1425L57.5224 64.1749L61.3407 60.8564L60.0288 59.3468ZM20.0743 81.0001H18.0743V83.0001H20.0743V81.0001ZM20.0743 80.9999H22.0743V79.011L20.0855 78.9999L20.0743 80.9999ZM19.9974 55.6002L20.0205 57.6001L21.8416 57.5791L21.9907 55.7639L19.9974 55.6002ZM62.0183 59.5512C62.0954 58.8002 62.1349 58.0386 62.1349 57.2685H58.1349C58.1349 57.9019 58.1025 58.527 58.0392 59.1425L62.0183 59.5512ZM68.118 54.3251C64.523 54.3251 61.2327 55.6508 58.7168 57.8373L61.3407 60.8564C63.1565 59.2783 65.5235 58.3251 68.118 58.3251V54.3251ZM82.4555 68.6626C82.4555 60.7442 76.0364 54.3251 68.118 54.3251V58.3251C73.8272 58.3251 78.4555 62.9533 78.4555 68.6626H82.4555ZM68.118 83.0001C76.0364 83.0001 82.4555 76.5809 82.4555 68.6626H78.4555C78.4555 74.3718 73.8272 79.0001 68.118 79.0001V83.0001ZM68.118 79.0001H20.1568V83.0001H68.118V79.0001ZM20.1469 83.0001C20.1492 83.0001 20.1515 83.0001 20.153 83.0001C20.1548 83.0001 20.1559 83.0001 20.1568 83.0001V79.0001C20.1545 79.0001 20.1523 79.0001 20.1507 79.0001C20.149 79.0001 20.1479 79.0001 20.1469 79.0001V83.0001ZM20.1369 83.0001C20.1379 83.0001 20.139 83.0001 20.1408 83.0001C20.1423 83.0001 20.1446 83.0001 20.1469 83.0001V79.0001C20.1459 79.0001 20.1448 79.0001 20.1431 79.0001C20.1415 79.0001 20.1393 79.0001 20.1369 79.0001V83.0001ZM20.1369 79.0001H20.0743V83.0001H20.1369V79.0001ZM22.0743 81.0001V80.9999H18.0743V81.0001H22.0743ZM5.44653 68.2997C5.44653 76.3905 11.9827 82.9546 20.0631 82.9998L20.0855 78.9999C14.2043 78.967 9.44653 74.1889 9.44653 68.2997H5.44653ZM19.9744 53.6003C11.9348 53.693 5.44653 60.2385 5.44653 68.2997H9.44653C9.44653 62.4322 14.1694 57.6675 20.0205 57.6001L19.9744 53.6003ZM40.032 35.1656C28.4417 35.1656 18.9366 44.0855 18.0041 55.4364L21.9907 55.7639C22.7541 46.471 30.541 39.1656 40.032 39.1656V35.1656ZM62.1349 57.2685C62.1349 45.0614 52.2391 35.1656 40.032 35.1656V39.1656C50.03 39.1656 58.1349 47.2706 58.1349 57.2685H62.1349Z" fill="url(#paint4_linear_312_2364)" mask="url(#path-3-outside-1_312_2364)"/>
</g>
<defs>
<filter id="filter0_b_312_2364" x="-4.55347" y="25.1656" width="97.009" height="67.8344" filterUnits="userSpaceOnUse" color-interpolation-filters="sRGB">
<feFlood flood-opacity="0" result="BackgroundImageFix"/>
<feGaussianBlur in="BackgroundImageFix" stdDeviation="5"/>
<feComposite in2="SourceAlpha" operator="in" result="effect1_backgroundBlur_312_2364"/>
<feBlend mode="normal" in="SourceGraphic" in2="effect1_backgroundBlur_312_2364" result="shape"/>
</filter>
<linearGradient id="paint0_linear_312_2364" x1="75.5536" y1="32.2264" x2="61.0701" y2="61.9862" gradientUnits="userSpaceOnUse">
<stop offset="0.182844" stop-color="#FFE600"/>
<stop offset="0.980542" stop-color="#F09000"/>
</linearGradient>
<linearGradient id="paint1_linear_312_2364" x1="58.4265" y1="26.2975" x2="80.8972" y2="80.2711" gradientUnits="userSpaceOnUse">
<stop stop-color="#FFE600"/>
<stop offset="1" stop-color="#9C8D00"/>
</linearGradient>
<linearGradient id="paint2_linear_312_2364" x1="85.812" y1="26.5274" x2="46.9158" y2="72.12" gradientUnits="userSpaceOnUse">
<stop stop-color="#FFE600"/>
<stop offset="1" stop-color="#AA9900"/>
</linearGradient>
<linearGradient id="paint3_linear_312_2364" x1="30.1385" y1="36.9829" x2="47.7001" y2="81.1829" gradientUnits="userSpaceOnUse">
<stop stop-color="white"/>
<stop offset="0.708333" stop-color="#9DDCFF" stop-opacity="0.69"/>
</linearGradient>
<linearGradient id="paint4_linear_312_2364" x1="41.5832" y1="21.9864" x2="65.8537" y2="98.9418" gradientUnits="userSpaceOnUse">
<stop stop-color="white"/>
<stop offset="0.713542" stop-color="#85C6EC" stop-opacity="0.71"/>
</linearGradient>
</defs>
</svg>
