<svg width="100" height="100" viewBox="0 0 100 100" fill="none" xmlns="http://www.w3.org/2000/svg">
<rect width="4.53599" height="12.0481" rx="2.268" transform="matrix(0.969122 0.246583 -0.271571 0.962418 28.3625 33)" fill="url(#paint0_linear_452_2092)"/>
<rect width="4.53599" height="12.0481" rx="2.268" transform="matrix(0.969122 0.246583 -0.271571 0.962418 43.1097 33)" fill="url(#paint1_linear_452_2092)"/>
<rect width="4.53599" height="12.0481" rx="2.268" transform="matrix(0.969122 0.246583 -0.271571 0.962418 57.8569 33)" fill="url(#paint2_linear_452_2092)"/>
<rect width="4.53599" height="12.0481" rx="2.268" transform="matrix(0.969122 0.246583 -0.271571 0.962418 72.6041 33)" fill="url(#paint3_linear_452_2092)"/>
<path d="M69.9027 67.0176C70.3421 67.0176 70.6058 66.71 70.6058 66.2705V64.46L71.9505 65.2598C72.2933 65.4883 72.6712 65.4619 72.8997 65.1104C73.0843 64.8115 72.9964 64.4248 72.6273 64.2051L70.6058 63.0449V61.9551L70.4212 58.9141L72.9789 60.5928L73.9193 61.1289L73.9281 63.4668C73.9281 63.8887 74.2093 64.1699 74.5609 64.1523C74.9828 64.1436 75.1937 63.8184 75.1673 63.4053L75.141 61.832L76.723 62.7549C77.1009 62.9746 77.4876 62.8779 77.6986 62.5176C77.9007 62.1396 77.7953 61.7441 77.4173 61.5332L75.8529 60.6279L77.2152 59.8545C77.5843 59.6699 77.7513 59.3271 77.558 58.9668C77.3822 58.6504 77.013 58.5449 76.6439 58.7471L74.6136 59.916L73.6732 59.3711L70.9222 58.0088L73.6732 56.6465L74.6136 56.1016L76.6351 57.2617C77.0042 57.4727 77.391 57.3672 77.5667 57.042C77.7513 56.6816 77.5843 56.3389 77.2152 56.1543L75.8529 55.3896L77.4261 54.4844C77.804 54.2646 77.9183 53.8779 77.7074 53.5C77.4964 53.1396 77.1009 53.0342 76.723 53.2627L75.141 54.168L75.1585 52.6035C75.1937 52.1904 74.9828 51.874 74.5697 51.8652C74.2093 51.8477 73.9281 52.1201 73.9281 52.542L73.9193 54.8799L72.9789 55.4248L70.4212 57.1123L70.6058 54.0537V52.9727L72.6273 51.8037C72.9964 51.584 73.0843 51.2061 72.8997 50.8984C72.68 50.5469 72.2933 50.5205 71.9505 50.749L70.6058 51.5488V49.7383C70.6058 49.2988 70.3421 49 69.9027 49C69.4896 49 69.2083 49.2988 69.2083 49.7383V51.5488L67.8548 50.749C67.5033 50.5205 67.1341 50.5469 66.9144 50.8984C66.721 51.2061 66.8177 51.584 67.1869 51.8037L69.2083 52.9727V54.0537L69.3929 57.1123L66.8353 55.4248L65.8949 54.8799L65.8861 52.542C65.8861 52.1201 65.6048 51.8477 65.2533 51.8652C64.8314 51.874 64.6205 52.1904 64.6468 52.6035L64.6732 54.168L63.0912 53.2627C62.722 53.0518 62.3177 53.1396 62.1068 53.5C61.8871 53.8779 62.0189 54.2734 62.388 54.4844L63.9613 55.3896L62.599 56.1543C62.2298 56.3389 62.0628 56.6729 62.2474 57.0508C62.4144 57.3672 62.8011 57.4727 63.179 57.2617L65.2005 56.1016L66.1322 56.6465L68.8919 58.0088L66.141 59.3711L65.1917 59.916L63.1703 58.7471C62.8011 58.5361 62.4232 58.6504 62.265 58.9668C62.0628 59.3447 62.2298 59.6699 62.599 59.8545L63.9613 60.6279L62.388 61.5332C62.0189 61.7441 61.8958 62.1484 62.1068 62.5088C62.3265 62.8867 62.722 62.9658 63.0912 62.7549L64.6732 61.8496L64.6468 63.4053C64.6205 63.8184 64.8314 64.1436 65.2445 64.1523C65.6048 64.1611 65.8861 63.8887 65.8861 63.4668L65.9037 61.1289L66.8353 60.5928L69.3929 58.9053L69.2083 61.9551V63.0361L67.1869 64.2139C66.8177 64.4336 66.721 64.8115 66.9144 65.1104C67.1341 65.4619 67.5033 65.4883 67.8548 65.2598L69.2083 64.46V66.2705C69.2083 66.71 69.4896 67.0176 69.9027 67.0176Z" fill="#4DA9FF"/>
<path d="M49.9027 67.0176C50.3421 67.0176 50.6058 66.71 50.6058 66.2705V64.46L51.9505 65.2598C52.2933 65.4883 52.6712 65.4619 52.8997 65.1104C53.0843 64.8115 52.9964 64.4248 52.6273 64.2051L50.6058 63.0449V61.9551L50.4212 58.9141L52.9789 60.5928L53.9193 61.1289L53.9281 63.4668C53.9281 63.8887 54.2093 64.1699 54.5609 64.1523C54.9828 64.1436 55.1937 63.8184 55.1673 63.4053L55.141 61.832L56.723 62.7549C57.1009 62.9746 57.4876 62.8779 57.6986 62.5176C57.9007 62.1396 57.7953 61.7441 57.4173 61.5332L55.8529 60.6279L57.2152 59.8545C57.5843 59.6699 57.7513 59.3271 57.558 58.9668C57.3822 58.6504 57.013 58.5449 56.6439 58.7471L54.6136 59.916L53.6732 59.3711L50.9222 58.0088L53.6732 56.6465L54.6136 56.1016L56.6351 57.2617C57.0042 57.4727 57.391 57.3672 57.5667 57.042C57.7513 56.6816 57.5843 56.3389 57.2152 56.1543L55.8529 55.3896L57.4261 54.4844C57.804 54.2646 57.9183 53.8779 57.7074 53.5C57.4964 53.1396 57.1009 53.0342 56.723 53.2627L55.141 54.168L55.1585 52.6035C55.1937 52.1904 54.9828 51.874 54.5697 51.8652C54.2093 51.8477 53.9281 52.1201 53.9281 52.542L53.9193 54.8799L52.9789 55.4248L50.4212 57.1123L50.6058 54.0537V52.9727L52.6273 51.8037C52.9964 51.584 53.0843 51.2061 52.8997 50.8984C52.68 50.5469 52.2933 50.5205 51.9505 50.749L50.6058 51.5488V49.7383C50.6058 49.2988 50.3421 49 49.9027 49C49.4896 49 49.2083 49.2988 49.2083 49.7383V51.5488L47.8548 50.749C47.5033 50.5205 47.1341 50.5469 46.9144 50.8984C46.721 51.2061 46.8177 51.584 47.1869 51.8037L49.2083 52.9727V54.0537L49.3929 57.1123L46.8353 55.4248L45.8949 54.8799L45.8861 52.542C45.8861 52.1201 45.6048 51.8477 45.2533 51.8652C44.8314 51.874 44.6205 52.1904 44.6468 52.6035L44.6732 54.168L43.0912 53.2627C42.722 53.0518 42.3177 53.1396 42.1068 53.5C41.8871 53.8779 42.0189 54.2734 42.388 54.4844L43.9613 55.3896L42.599 56.1543C42.2298 56.3389 42.0628 56.6729 42.2474 57.0508C42.4144 57.3672 42.8011 57.4727 43.179 57.2617L45.2005 56.1016L46.1322 56.6465L48.8919 58.0088L46.141 59.3711L45.1917 59.916L43.1703 58.7471C42.8011 58.5361 42.4232 58.6504 42.265 58.9668C42.0628 59.3447 42.2298 59.6699 42.599 59.8545L43.9613 60.6279L42.388 61.5332C42.0189 61.7441 41.8958 62.1484 42.1068 62.5088C42.3265 62.8867 42.722 62.9658 43.0912 62.7549L44.6732 61.8496L44.6468 63.4053C44.6205 63.8184 44.8314 64.1436 45.2445 64.1523C45.6048 64.1611 45.8861 63.8887 45.8861 63.4668L45.9037 61.1289L46.8353 60.5928L49.3929 58.9053L49.2083 61.9551V63.0361L47.1869 64.2139C46.8177 64.4336 46.721 64.8115 46.9144 65.1104C47.1341 65.4619 47.5033 65.4883 47.8548 65.2598L49.2083 64.46V66.2705C49.2083 66.71 49.4896 67.0176 49.9027 67.0176Z" fill="#4DA9FF"/>
<path d="M29.9027 67.0176C30.3421 67.0176 30.6058 66.71 30.6058 66.2705V64.46L31.9505 65.2598C32.2933 65.4883 32.6712 65.4619 32.8997 65.1104C33.0843 64.8115 32.9964 64.4248 32.6273 64.2051L30.6058 63.0449V61.9551L30.4212 58.9141L32.9789 60.5928L33.9193 61.1289L33.9281 63.4668C33.9281 63.8887 34.2093 64.1699 34.5609 64.1523C34.9828 64.1436 35.1937 63.8184 35.1673 63.4053L35.141 61.832L36.723 62.7549C37.1009 62.9746 37.4876 62.8779 37.6986 62.5176C37.9007 62.1396 37.7953 61.7441 37.4173 61.5332L35.8529 60.6279L37.2152 59.8545C37.5843 59.6699 37.7513 59.3271 37.558 58.9668C37.3822 58.6504 37.013 58.5449 36.6439 58.7471L34.6136 59.916L33.6732 59.3711L30.9222 58.0088L33.6732 56.6465L34.6136 56.1016L36.6351 57.2617C37.0042 57.4727 37.391 57.3672 37.5667 57.042C37.7513 56.6816 37.5843 56.3389 37.2152 56.1543L35.8529 55.3896L37.4261 54.4844C37.804 54.2646 37.9183 53.8779 37.7074 53.5C37.4964 53.1396 37.1009 53.0342 36.723 53.2627L35.141 54.168L35.1585 52.6035C35.1937 52.1904 34.9828 51.874 34.5697 51.8652C34.2093 51.8477 33.9281 52.1201 33.9281 52.542L33.9193 54.8799L32.9789 55.4248L30.4212 57.1123L30.6058 54.0537V52.9727L32.6273 51.8037C32.9964 51.584 33.0843 51.2061 32.8997 50.8984C32.68 50.5469 32.2933 50.5205 31.9505 50.749L30.6058 51.5488V49.7383C30.6058 49.2988 30.3421 49 29.9027 49C29.4896 49 29.2083 49.2988 29.2083 49.7383V51.5488L27.8548 50.749C27.5033 50.5205 27.1341 50.5469 26.9144 50.8984C26.721 51.2061 26.8177 51.584 27.1869 51.8037L29.2083 52.9727V54.0537L29.3929 57.1123L26.8353 55.4248L25.8949 54.8799L25.8861 52.542C25.8861 52.1201 25.6048 51.8477 25.2533 51.8652C24.8314 51.874 24.6205 52.1904 24.6468 52.6035L24.6732 54.168L23.0912 53.2627C22.722 53.0518 22.3177 53.1396 22.1068 53.5C21.8871 53.8779 22.0189 54.2734 22.388 54.4844L23.9613 55.3896L22.599 56.1543C22.2298 56.3389 22.0628 56.6729 22.2474 57.0508C22.4144 57.3672 22.8011 57.4727 23.179 57.2617L25.2005 56.1016L26.1322 56.6465L28.8919 58.0088L26.141 59.3711L25.1917 59.916L23.1703 58.7471C22.8011 58.5361 22.4232 58.6504 22.265 58.9668C22.0628 59.3447 22.2298 59.6699 22.599 59.8545L23.9613 60.6279L22.388 61.5332C22.0189 61.7441 21.8958 62.1484 22.1068 62.5088C22.3265 62.8867 22.722 62.9658 23.0912 62.7549L24.6732 61.8496L24.6468 63.4053C24.6205 63.8184 24.8314 64.1436 25.2445 64.1523C25.6048 64.1611 25.8861 63.8887 25.8861 63.4668L25.9037 61.1289L26.8353 60.5928L29.3929 58.9053L29.2083 61.9551V63.0361L27.1869 64.2139C26.8177 64.4336 26.721 64.8115 26.9144 65.1104C27.1341 65.4619 27.5033 65.4883 27.8548 65.2598L29.2083 64.46V66.2705C29.2083 66.71 29.4896 67.0176 29.9027 67.0176Z" fill="#4DA9FF"/>
<defs>
<linearGradient id="paint0_linear_452_2092" x1="0.503999" y1="10.6023" x2="4.23869" y2="1.32607" gradientUnits="userSpaceOnUse">
<stop stop-color="#3981EE"/>
<stop offset="1" stop-color="#92BDFF"/>
</linearGradient>
<linearGradient id="paint1_linear_452_2092" x1="0.503999" y1="10.6023" x2="4.23869" y2="1.32607" gradientUnits="userSpaceOnUse">
<stop stop-color="#3981EE"/>
<stop offset="1" stop-color="#92BDFF"/>
</linearGradient>
<linearGradient id="paint2_linear_452_2092" x1="0.503999" y1="10.6023" x2="4.23869" y2="1.32607" gradientUnits="userSpaceOnUse">
<stop stop-color="#3981EE"/>
<stop offset="1" stop-color="#92BDFF"/>
</linearGradient>
<linearGradient id="paint3_linear_452_2092" x1="0.503999" y1="10.6023" x2="4.23869" y2="1.32607" gradientUnits="userSpaceOnUse">
<stop stop-color="#3981EE"/>
<stop offset="1" stop-color="#92BDFF"/>
</linearGradient>
</defs>
</svg>
