<svg width="100" height="100" viewBox="0 0 100 100" fill="none" xmlns="http://www.w3.org/2000/svg">
<path d="M34.3962 65.7779L35.2331 66.2666L34.3962 65.7779C33.7671 66.8553 34.5541 68.1897 35.785 68.1897H38.4133L29.7914 83.6087C28.8792 85.24 30.9746 86.7783 32.2861 85.5683L57.6572 62.163C58.7398 61.1643 58.0172 59.3809 56.5661 59.3809H53.932L59.3653 50.0074C59.9899 48.9299 59.2027 47.6 57.974 47.6H45.9343C45.3641 47.6 44.8344 47.9018 44.5455 48.3964L34.3962 65.7779Z" fill="url(#paint0_linear_312_2366)" stroke="url(#paint1_linear_312_2366)" stroke-width="2"/>
<g filter="url(#filter0_b_312_2366)">
<mask id="path-2-outside-1_312_2366" maskUnits="userSpaceOnUse" x="10.2" y="13" width="80" height="49" fill="black">
<rect fill="white" x="10.2" y="13" width="80" height="49"/>
<path fill-rule="evenodd" clip-rule="evenodd" d="M66.7583 35.5457C66.7583 36.2629 66.721 36.9715 66.6484 37.6698C68.8911 35.746 71.8201 34.5815 75.0247 34.5815C82.0803 34.5815 87.8 40.2268 87.8 47.1907C87.8 54.1546 82.0803 59.8 75.0247 59.8H25.3613C25.3579 59.8 25.3545 59.8 25.3511 59.8C25.3477 59.8 25.3443 59.8 25.3409 59.8H25.276V59.7998C18.0474 59.7599 12.2 53.9639 12.2 46.8199C12.2 39.7021 18.0045 33.9225 25.1963 33.8406C26.0744 23.2913 35.0272 15 45.942 15C57.4385 15 66.7583 24.1986 66.7583 35.5457Z"/>
</mask>
<path fill-rule="evenodd" clip-rule="evenodd" d="M66.7583 35.5457C66.7583 36.2629 66.721 36.9715 66.6484 37.6698C68.8911 35.746 71.8201 34.5815 75.0247 34.5815C82.0803 34.5815 87.8 40.2268 87.8 47.1907C87.8 54.1546 82.0803 59.8 75.0247 59.8H25.3613C25.3579 59.8 25.3545 59.8 25.3511 59.8C25.3477 59.8 25.3443 59.8 25.3409 59.8H25.276V59.7998C18.0474 59.7599 12.2 53.9639 12.2 46.8199C12.2 39.7021 18.0045 33.9225 25.1963 33.8406C26.0744 23.2913 35.0272 15 45.942 15C57.4385 15 66.7583 24.1986 66.7583 35.5457Z" fill="url(#paint2_linear_312_2366)"/>
<path d="M66.6484 37.6698L64.6591 37.4628L64.1394 42.4569L67.9505 39.1878L66.6484 37.6698ZM25.276 59.8H23.276V61.8H25.276V59.8ZM25.276 59.7998H27.276V57.8108L25.287 57.7998L25.276 59.7998ZM25.1963 33.8406L25.2191 35.8405L27.0385 35.8198L27.1894 34.0065L25.1963 33.8406ZM68.6376 37.8768C68.7174 37.1099 68.7583 36.3322 68.7583 35.5457H64.7583C64.7583 36.1936 64.7246 36.8332 64.6591 37.4628L68.6376 37.8768ZM75.0247 32.5815C71.3274 32.5815 67.9399 33.9269 65.3462 36.1517L67.9505 39.1878C69.8422 37.5652 72.3127 36.5815 75.0247 36.5815V32.5815ZM89.8 47.1907C89.8 39.0977 83.1601 32.5815 75.0247 32.5815V36.5815C81.0005 36.5815 85.8 41.356 85.8 47.1907H89.8ZM75.0247 61.8C83.1601 61.8 89.8 55.2838 89.8 47.1907H85.8C85.8 53.0255 81.0005 57.8 75.0247 57.8V61.8ZM75.0247 57.8H25.3613V61.8H75.0247V57.8ZM25.3511 61.8C25.3535 61.8 25.3557 61.8 25.3573 61.8C25.3591 61.8 25.3603 61.8 25.3613 61.8V57.8C25.3589 57.8 25.3567 57.8 25.3551 57.8C25.3533 57.8 25.3521 57.8 25.3511 57.8V61.8ZM25.3409 61.8C25.342 61.8 25.3431 61.8 25.3449 61.8C25.3465 61.8 25.3488 61.8 25.3511 61.8V57.8C25.3501 57.8 25.3489 57.8 25.3471 57.8C25.3455 57.8 25.3433 57.8 25.3409 57.8V61.8ZM25.3409 57.8H25.276V61.8H25.3409V57.8ZM27.276 59.8V59.7998H23.276V59.8H27.276ZM10.2 46.8199C10.2 55.0891 16.9613 61.7539 25.2649 61.7998L25.287 57.7998C19.1335 57.7658 14.2 52.8386 14.2 46.8199H10.2ZM25.1736 31.8407C16.9117 31.9348 10.2 38.581 10.2 46.8199H14.2C14.2 40.8233 19.0973 35.9102 25.2191 35.8405L25.1736 31.8407ZM45.942 13C34 13 24.1687 22.0757 23.2032 33.6747L27.1894 34.0065C27.9801 24.5068 36.0543 17 45.942 17V13ZM68.7583 35.5457C68.7583 23.0695 58.5183 13 45.942 13V17C56.3587 17 64.7583 25.3278 64.7583 35.5457H68.7583Z" fill="url(#paint3_linear_312_2366)" mask="url(#path-2-outside-1_312_2366)"/>
</g>
<defs>
<filter id="filter0_b_312_2366" x="0.200012" y="3" width="99.6" height="68.8" filterUnits="userSpaceOnUse" color-interpolation-filters="sRGB">
<feFlood flood-opacity="0" result="BackgroundImageFix"/>
<feGaussianBlur in="BackgroundImageFix" stdDeviation="5"/>
<feComposite in2="SourceAlpha" operator="in" result="effect1_backgroundBlur_312_2366"/>
<feBlend mode="normal" in="SourceGraphic" in2="effect1_backgroundBlur_312_2366" result="shape"/>
</filter>
<linearGradient id="paint0_linear_312_2366" x1="51.7319" y1="51.3726" x2="30.9168" y2="81.9904" gradientUnits="userSpaceOnUse">
<stop offset="0.182844" stop-color="#FFE600"/>
<stop offset="0.980542" stop-color="#F09000"/>
</linearGradient>
<linearGradient id="paint1_linear_312_2366" x1="37.3112" y1="38.1784" x2="52.1996" y2="100.288" gradientUnits="userSpaceOnUse">
<stop offset="0.14688" stop-color="#FFE600"/>
<stop offset="0.938214" stop-color="#F09000"/>
</linearGradient>
<linearGradient id="paint2_linear_312_2366" x1="35.6973" y1="14.8132" x2="53.4751" y2="60.1465" gradientUnits="userSpaceOnUse">
<stop stop-color="white"/>
<stop offset="0.708333" stop-color="#9DDCFF" stop-opacity="0.69"/>
</linearGradient>
<linearGradient id="paint3_linear_312_2366" x1="47.5481" y1="-0.513603" x2="72.0882" y2="78.3212" gradientUnits="userSpaceOnUse">
<stop stop-color="white"/>
<stop offset="0.713542" stop-color="#85C6EC" stop-opacity="0.71"/>
</linearGradient>
</defs>
</svg>
