<svg width="14" height="14" viewBox="0 0 14 14" fill="none" xmlns="http://www.w3.org/2000/svg">
<path fill-rule="evenodd" clip-rule="evenodd" d="M7 0C3.136 0 0 3.136 0 7C0 10.864 3.136 14 7 14C10.864 14 14 10.864 14 7C14 3.136 10.864 0 7 0ZM6.3 3.5V6.3H3.5V7.7H6.3V10.5H7.7V7.7H10.5V6.3H7.7V3.5H6.3ZM1.39994 7.00008C1.39994 10.0871 3.91294 12.6001 6.99994 12.6001C10.0869 12.6001 12.5999 10.0871 12.5999 7.00008C12.5999 3.91309 10.0869 1.40009 6.99994 1.40009C3.91294 1.40009 1.39994 3.91309 1.39994 7.00008Z" fill="#2C2C2C"/>
</svg>
