<svg width="100" height="100" viewBox="0 0 100 100" fill="none" xmlns="http://www.w3.org/2000/svg">
<path fill-rule="evenodd" clip-rule="evenodd" d="M64.5069 45.2568C64.2614 45.2568 64.0624 45.4559 64.0624 45.7014V47.0956L63.0481 45.8145C62.8957 45.622 62.6161 45.5896 62.4236 45.742C62.2312 45.8944 62.1987 46.1739 62.3511 46.3664L64.0624 48.5278V49.3443L63.0481 48.0633C62.8957 47.8708 62.6161 47.8383 62.4237 47.9907C62.2312 48.1431 62.1987 48.4227 62.3511 48.6151L64.0624 50.7765V54.6152L61.2176 51.7703L60.8994 49.0319C60.871 48.7881 60.6504 48.6134 60.4065 48.6417C60.1626 48.6701 59.9879 48.8907 60.0163 49.1346L60.2049 50.7576L59.6275 50.1802L59.3092 47.4418C59.2809 47.198 59.0602 47.0233 58.8164 47.0516C58.5725 47.0799 58.3978 47.3006 58.4261 47.5445L58.6148 49.1675L57.7594 48.3122C57.5858 48.1386 57.3044 48.1386 57.1308 48.3122C56.9572 48.4858 56.9572 48.7672 57.1308 48.9408L58.0067 49.8167L56.3468 49.6238C56.1029 49.5955 55.8823 49.7702 55.8539 50.0141C55.8256 50.2579 56.0003 50.4786 56.2442 50.5069L59.0194 50.8295L59.5968 51.4069L57.9369 51.214C57.6931 51.1856 57.4724 51.3603 57.4441 51.6042C57.4157 51.848 57.5904 52.0687 57.8343 52.0971L60.6096 52.4196L63.4501 55.2601H59.3943L57.2329 53.5488C57.0405 53.3964 56.7609 53.4289 56.6085 53.6213C56.4561 53.8138 56.4886 54.0934 56.6811 54.2458L57.9621 55.2601H57.1456L54.9842 53.5488C54.7917 53.3964 54.5121 53.4289 54.3597 53.6213C54.2073 53.8138 54.2398 54.0934 54.4323 54.2458L55.7134 55.2601H54.5037C54.2582 55.2601 54.0591 55.4591 54.0591 55.7046C54.0591 55.9501 54.2582 56.1491 54.5037 56.1491H55.7424L54.4323 57.1865C54.2398 57.3389 54.2073 57.6184 54.3597 57.8109C54.5121 58.0034 54.7917 58.0359 54.9842 57.8835L57.1746 56.1491H57.9912L56.6811 57.1865C56.4886 57.3389 56.4561 57.6184 56.6085 57.8109C56.7609 58.0034 57.0405 58.0359 57.2329 57.8835L59.4234 56.1491H63.4405L60.5727 59.017L57.8342 59.3352C57.5904 59.3636 57.4156 59.5842 57.444 59.8281C57.4723 60.0719 57.693 60.2467 57.9368 60.2183L59.5599 60.0297L58.9826 60.6071L56.2441 60.9253C56.0002 60.9537 55.8255 61.1743 55.8539 61.4182C55.8822 61.6621 56.1029 61.8368 56.3467 61.8084L57.9698 61.6198L57.1144 62.4752C56.9408 62.6488 56.9408 62.9303 57.1144 63.1038C57.288 63.2774 57.5695 63.2774 57.7431 63.1038L58.619 62.2279L58.4261 63.8878C58.3978 64.1317 58.5725 64.3523 58.8164 64.3807C59.0602 64.409 59.2809 64.2343 59.3092 63.9904L59.6317 61.2152L60.2092 60.6378L60.0163 62.2977C59.9879 62.5416 60.1626 62.7622 60.4065 62.7906C60.6503 62.8189 60.871 62.6442 60.8993 62.4003L61.2219 59.6251L64.0624 56.7845V60.8402L62.3511 63.0016C62.1987 63.1941 62.2312 63.4737 62.4237 63.6261C62.6161 63.7785 62.8957 63.746 63.0481 63.5535L64.0624 62.2724V63.089L62.3511 65.2504C62.1987 65.4428 62.2312 65.7224 62.4237 65.8748C62.6161 66.0272 62.8957 65.9947 63.0481 65.8022L64.0624 64.5212V65.7309C64.0624 65.9764 64.2614 66.1754 64.5069 66.1754C64.7524 66.1754 64.9515 65.9764 64.9515 65.7309V64.4921L65.9888 65.8022C66.1412 65.9947 66.4207 66.0272 66.6132 65.8748C66.8057 65.7224 66.8382 65.4428 66.6858 65.2504L64.9515 63.0599V62.2434L65.9888 63.5535C66.1412 63.746 66.4207 63.7785 66.6132 63.6261C66.8057 63.4737 66.8382 63.1941 66.6858 63.0016L64.9515 60.8112V56.7615L67.6846 59.4946L68.0071 62.2698C68.0354 62.5137 68.2561 62.6884 68.4999 62.6601C68.7438 62.6317 68.9185 62.411 68.8902 62.1672L68.6973 60.5073L69.2747 61.0847L69.5972 63.8599C69.6255 64.1038 69.8462 64.2785 70.09 64.2502C70.3339 64.2218 70.5086 64.0012 70.4803 63.7573L70.2874 62.0974L71.2938 63.1038C71.4674 63.2774 71.7489 63.2774 71.9225 63.1038C72.0961 62.9302 72.0961 62.6488 71.9225 62.4752L70.9366 61.4893L72.5597 61.6779C72.8035 61.7063 73.0242 61.5315 73.0525 61.2877C73.0809 61.0438 72.9062 60.8232 72.6623 60.7948L69.9238 60.4766L69.3465 59.8992L70.9696 60.0878C71.2134 60.1161 71.4341 59.9414 71.4624 59.6976C71.4908 59.4537 71.3161 59.2331 71.0722 59.2047L68.3337 58.8865L65.5964 56.1491H69.4289L71.6194 57.8835C71.8119 58.0359 72.0914 58.0034 72.2438 57.8109C72.3962 57.6184 72.3637 57.3389 72.1713 57.1865L70.8611 56.1491H71.6777L73.8682 57.8835C74.0606 58.0359 74.3402 58.0034 74.4926 57.8109C74.645 57.6184 74.6125 57.3389 74.42 57.1865L73.1099 56.1491H74.5332C74.7787 56.1491 74.9777 55.9501 74.9777 55.7046C74.9777 55.4591 74.7787 55.2601 74.5332 55.2601H73.139L74.42 54.2458C74.6125 54.0934 74.645 53.8138 74.4926 53.6213C74.3402 53.4289 74.0606 53.3964 73.8682 53.5488L71.7068 55.2601H70.8902L72.1713 54.2458C72.3637 54.0934 72.3962 53.8138 72.2438 53.6213C72.0914 53.4289 71.8119 53.3964 71.6194 53.5488L69.458 55.2601H65.5868L68.2969 52.5501L71.0721 52.2275C71.316 52.1992 71.4907 51.9785 71.4624 51.7347C71.434 51.4908 71.2134 51.3161 70.9695 51.3444L69.3096 51.5374L69.887 50.96L72.6622 50.6374C72.9061 50.6091 73.0808 50.3884 73.0525 50.1446C73.0241 49.9007 72.8035 49.726 72.5596 49.7543L70.8997 49.9472L71.9061 48.9408C72.0797 48.7672 72.0797 48.4858 71.9061 48.3122C71.7325 48.1386 71.4511 48.1386 71.2775 48.3122L70.2916 49.298L70.4803 47.675C70.5086 47.4311 70.3339 47.2104 70.09 47.1821C69.8462 47.1538 69.6255 47.3285 69.5972 47.5723L69.2789 50.3107L68.7015 50.8881L68.8901 49.2651C68.9185 49.0212 68.7438 48.8005 68.4999 48.7722C68.2561 48.7439 68.0354 48.9186 68.0071 49.1624L67.6888 51.9008L64.9515 54.6382V50.8056L66.6858 48.6151C66.8382 48.4227 66.8057 48.1431 66.6132 47.9907C66.4207 47.8383 66.1412 47.8708 65.9888 48.0633L64.9515 49.3734V48.5568L66.6858 46.3664C66.8382 46.1739 66.8057 45.8944 66.6132 45.742C66.4207 45.5896 66.1412 45.622 65.9888 45.8145L64.9515 47.1246V45.7014C64.9515 45.4559 64.7524 45.2568 64.5069 45.2568Z" fill="url(#paint0_linear_452_1815)"/>
<path fill-rule="evenodd" clip-rule="evenodd" d="M51.0824 71.4788C50.913 71.4788 50.7756 71.6161 50.7756 71.7855V72.7478L50.0756 71.8636C49.9704 71.7308 49.7775 71.7084 49.6446 71.8136C49.5118 71.9187 49.4894 72.1117 49.5946 72.2445L50.7756 73.7362V74.2997L50.0756 73.4156C49.9704 73.2828 49.7775 73.2603 49.6446 73.3655C49.5118 73.4707 49.4894 73.6636 49.5946 73.7965L50.7756 75.2881V77.9373L48.8123 75.974L48.5927 74.0841C48.5731 73.9158 48.4208 73.7952 48.2525 73.8148C48.0842 73.8344 47.9637 73.9866 47.9832 74.1549L48.1134 75.2751L47.7149 74.8766L47.4953 72.9867C47.4757 72.8184 47.3234 72.6978 47.1551 72.7174C46.9868 72.737 46.8662 72.8892 46.8858 73.0575L47.016 74.1777L46.4257 73.5874C46.3059 73.4676 46.1116 73.4676 45.9918 73.5874C45.872 73.7072 45.872 73.9014 45.9918 74.0212L46.5963 74.6257L45.4508 74.4926C45.2825 74.473 45.1302 74.5936 45.1106 74.7619C45.091 74.9302 45.2116 75.0825 45.3799 75.1021L47.2953 75.3247L47.6937 75.7231L46.5482 75.59C46.3799 75.5705 46.2276 75.691 46.208 75.8593C46.1885 76.0276 46.309 76.1799 46.4773 76.1995L48.3927 76.4221L50.353 78.3824H47.554L46.0623 77.2014C45.9295 77.0962 45.7365 77.1186 45.6314 77.2515C45.5262 77.3843 45.5486 77.5772 45.6814 77.6824L46.5656 78.3824H46.002L44.5103 77.2014C44.3775 77.0962 44.1846 77.1186 44.0794 77.2515C43.9742 77.3843 43.9966 77.5772 44.1295 77.6824L45.0136 78.3824H44.1787C44.0093 78.3824 43.8719 78.5198 43.8719 78.6892C43.8719 78.8586 44.0093 78.996 44.1787 78.996H45.0336L44.1295 79.7119C43.9966 79.8171 43.9742 80.01 44.0794 80.1428C44.1846 80.2757 44.3775 80.2981 44.5103 80.1929L46.0221 78.996H46.5856L45.6814 79.7119C45.5486 79.8171 45.5262 80.01 45.6314 80.1428C45.7365 80.2757 45.9295 80.2981 46.0623 80.1929L47.574 78.996H50.3464L48.3672 80.9752L46.4773 81.1948C46.309 81.2144 46.1884 81.3667 46.208 81.535C46.2275 81.7033 46.3798 81.8238 46.5481 81.8043L47.6683 81.6741L47.2698 82.0726L45.3799 82.2922C45.2116 82.3118 45.091 82.4641 45.1106 82.6324C45.1301 82.8007 45.2824 82.9212 45.4507 82.9017L46.5709 82.7715L45.9805 83.3619C45.8607 83.4817 45.8607 83.6759 45.9805 83.7957C46.1003 83.9155 46.2946 83.9155 46.4144 83.7957L47.0189 83.1912L46.8858 84.3368C46.8662 84.505 46.9868 84.6573 47.1551 84.6769C47.3234 84.6965 47.4757 84.5759 47.4952 84.4076L47.7178 82.4923L48.1163 82.0938L47.9832 83.2393C47.9636 83.4076 48.0842 83.5599 48.2525 83.5795C48.4208 83.5991 48.5731 83.4785 48.5927 83.3102L48.8152 81.3949L50.7756 79.4345V82.2335L49.5946 83.7252C49.4894 83.858 49.5118 84.051 49.6446 84.1561C49.7775 84.2613 49.9704 84.2389 50.0756 84.106L50.7756 83.2219V83.7854L49.5946 85.2771C49.4894 85.4099 49.5118 85.6029 49.6446 85.7081C49.7775 85.8132 49.9704 85.7908 50.0756 85.658L50.7756 84.7739V85.6088C50.7756 85.7782 50.913 85.9155 51.0824 85.9155C51.2518 85.9155 51.3892 85.7782 51.3892 85.6088V84.7538L52.1051 85.658C52.2102 85.7908 52.4032 85.8132 52.536 85.7081C52.6689 85.6029 52.6913 85.4099 52.5861 85.2771L51.3892 83.7654V83.2019L52.1051 84.106C52.2102 84.2389 52.4032 84.2613 52.536 84.1561C52.6689 84.051 52.6913 83.858 52.5861 83.7252L51.3892 82.2135V79.4186L53.2754 81.3048L53.498 83.2201C53.5175 83.3884 53.6698 83.509 53.8381 83.4894C54.0064 83.4699 54.127 83.3176 54.1074 83.1493L53.9743 82.0037L54.3728 82.4022L54.5954 84.3175C54.6149 84.4858 54.7672 84.6064 54.9355 84.5868C55.1038 84.5673 55.2244 84.415 55.2048 84.2467L55.0717 83.1011L55.7663 83.7957C55.8861 83.9155 56.0803 83.9155 56.2002 83.7957C56.32 83.6759 56.32 83.4817 56.2002 83.3618L55.5197 82.6814L56.6399 82.8116C56.8082 82.8312 56.9605 82.7106 56.9801 82.5423C56.9996 82.374 56.8791 82.2217 56.7108 82.2022L54.8208 81.9825L54.4223 81.584L55.5425 81.7142C55.7108 81.7338 55.8631 81.6132 55.8827 81.4449C55.9022 81.2766 55.7817 81.1243 55.6134 81.1048L53.7234 80.8851L51.8343 78.996H54.4793L55.991 80.1929C56.1238 80.2981 56.3168 80.2757 56.4219 80.1428C56.5271 80.01 56.5047 79.8171 56.3719 79.7119L55.4677 78.996H56.0312L57.543 80.1929C57.6758 80.2981 57.8687 80.2757 57.9739 80.1428C58.0791 80.01 58.0567 79.8171 57.9238 79.7119L57.0197 78.996H58.0019C58.1714 78.996 58.3087 78.8586 58.3087 78.6892C58.3087 78.5198 58.1714 78.3824 58.0019 78.3824H57.0397L57.9238 77.6824C58.0567 77.5772 58.0791 77.3843 57.9739 77.2515C57.8687 77.1186 57.6758 77.0962 57.543 77.2014L56.0513 78.3824H55.4877L56.3719 77.6824C56.5047 77.5772 56.5271 77.3843 56.4219 77.2515C56.3168 77.1186 56.1238 77.0962 55.991 77.2014L54.4993 78.3824H51.8277L53.698 76.5121L55.6133 76.2895C55.7816 76.27 55.9022 76.1177 55.8826 75.9494C55.8631 75.7811 55.7108 75.6605 55.5425 75.6801L54.3969 75.8132L54.7954 75.4147L56.7107 75.1921C56.879 75.1726 56.9996 75.0203 56.98 74.852C56.9605 74.6837 56.8082 74.5631 56.6399 74.5827L55.4943 74.7158L56.1889 74.0212C56.3087 73.9014 56.3087 73.7072 56.1889 73.5874C56.0691 73.4676 55.8748 73.4676 55.755 73.5874L55.0747 74.2677L55.2048 73.1476C55.2244 72.9793 55.1038 72.827 54.9355 72.8075C54.7672 72.7879 54.6149 72.9085 54.5954 73.0768L54.3757 74.9666L53.9773 75.3651L54.1074 74.245C54.127 74.0767 54.0064 73.9244 53.8381 73.9049C53.6698 73.8853 53.5175 74.0059 53.498 74.1742L53.2783 76.064L51.3892 77.9532V75.3082L52.5861 73.7965C52.6913 73.6636 52.6689 73.4707 52.536 73.3655C52.4032 73.2603 52.2102 73.2828 52.1051 73.4156L51.3892 74.3197V73.7562L52.5861 72.2445C52.6913 72.1117 52.6689 71.9187 52.536 71.8136C52.4032 71.7084 52.2102 71.7308 52.1051 71.8636L51.3892 72.7678V71.7855C51.3892 71.6161 51.2518 71.4788 51.0824 71.4788Z" fill="url(#paint1_linear_452_1815)"/>
<path fill-rule="evenodd" clip-rule="evenodd" d="M34.8225 53.0957C34.6185 53.0957 34.4532 53.2611 34.4532 53.4651V54.6237L33.6103 53.5591C33.4836 53.3992 33.2513 53.3722 33.0914 53.4988C32.9314 53.6255 32.9044 53.8578 33.031 54.0177L34.4532 55.8138V56.4924L33.6103 55.4278C33.4836 55.2679 33.2513 55.2409 33.0914 55.3675C32.9314 55.4941 32.9044 55.7265 33.0311 55.8864L34.4532 57.6825V60.8723L32.0892 58.5083L31.8247 56.2328C31.8011 56.0301 31.6178 55.8849 31.4151 55.9085C31.2125 55.932 31.0673 56.1154 31.0909 56.3181L31.2476 57.6668L30.7678 57.187L30.5033 54.9114C30.4798 54.7088 30.2964 54.5636 30.0938 54.5871C29.8911 54.6107 29.7459 54.794 29.7695 54.9967L29.9262 56.3454L29.2154 55.6346C29.0712 55.4904 28.8373 55.4904 28.6931 55.6346C28.5488 55.7789 28.5488 56.0128 28.6931 56.157L29.421 56.8849L28.0416 56.7246C27.8389 56.7011 27.6556 56.8463 27.632 57.0489C27.6085 57.2515 27.7536 57.4349 27.9563 57.4585L30.2625 57.7265L30.7423 58.2063L29.3629 58.046C29.1603 58.0224 28.9769 58.1676 28.9534 58.3703C28.9298 58.5729 29.075 58.7563 29.2777 58.7798L31.5839 59.0478L33.9443 61.4083H30.574L28.7779 59.9862C28.618 59.8596 28.3857 59.8866 28.259 60.0465C28.1324 60.2064 28.1594 60.4388 28.3193 60.5654L29.3839 61.4083H28.7053L26.9093 59.9862C26.7493 59.8596 26.517 59.8866 26.3903 60.0465C26.2637 60.2064 26.2907 60.4388 26.4507 60.5654L27.5152 61.4083H26.51C26.3059 61.4083 26.1406 61.5737 26.1406 61.7777C26.1406 61.9817 26.3059 62.1471 26.51 62.1471H27.5393L26.4507 63.0091C26.2907 63.1357 26.2637 63.368 26.3903 63.528C26.517 63.6879 26.7493 63.7149 26.9093 63.5883L28.7295 62.1471H29.408L28.3193 63.0091C28.1594 63.1357 28.1324 63.368 28.259 63.528C28.3857 63.6879 28.618 63.7149 28.7779 63.5883L30.5982 62.1471H33.9363L31.5532 64.5302L29.2776 64.7946C29.075 64.8182 28.9298 65.0016 28.9533 65.2042C28.9769 65.4068 29.1602 65.552 29.3629 65.5285L30.7117 65.3717L30.2318 65.8515L27.9562 66.116C27.7536 66.1396 27.6084 66.3229 27.6319 66.5256C27.6555 66.7282 27.8389 66.8734 28.0415 66.8498L29.3903 66.6931L28.6795 67.4039C28.5352 67.5482 28.5352 67.7821 28.6795 67.9263C28.8237 68.0706 29.0576 68.0706 29.2019 67.9263L29.9298 67.1984L29.7695 68.5778C29.7459 68.7804 29.8911 68.9638 30.0937 68.9873C30.2964 69.0109 30.4798 68.8657 30.5033 68.6631L30.7713 66.3569L31.2511 65.877L31.0908 67.2564C31.0673 67.4591 31.2125 67.6424 31.4151 67.666C31.6178 67.6895 31.8011 67.5443 31.8247 67.3417L32.0927 65.0355L34.4532 62.675V66.0453L33.0311 67.8414C32.9044 68.0013 32.9314 68.2337 33.0914 68.3603C33.2513 68.4869 33.4836 68.4599 33.6103 68.3L34.4532 67.2354V67.9139L33.0311 69.71C32.9044 69.87 32.9314 70.1023 33.0914 70.229C33.2513 70.3556 33.4836 70.3286 33.6103 70.1686L34.4532 69.1041V70.1094C34.4532 70.3134 34.6185 70.4788 34.8225 70.4788C35.0266 70.4788 35.1919 70.3134 35.1919 70.1094V69.08L36.0539 70.1686C36.1806 70.3286 36.4129 70.3556 36.5728 70.229C36.7328 70.1023 36.7598 69.87 36.6331 69.71L35.1919 67.8898V67.2113L36.0539 68.3C36.1806 68.4599 36.4129 68.4869 36.5728 68.3603C36.7328 68.2337 36.7598 68.0013 36.6331 67.8414L35.1919 66.0212V62.6559L37.4631 64.9271L37.7311 67.2332C37.7547 67.4359 37.938 67.5811 38.1407 67.5575C38.3433 67.534 38.4885 67.3506 38.4649 67.148L38.3046 65.7686L38.7844 66.2484L39.0525 68.5546C39.076 68.7572 39.2594 68.9024 39.462 68.8789C39.6647 68.8553 39.8098 68.672 39.7863 68.4693L39.626 67.09L40.4623 67.9263C40.6066 68.0706 40.8405 68.0706 40.9847 67.9263C41.129 67.7821 41.129 67.5482 40.9847 67.4039L40.1655 66.5846L41.5143 66.7414C41.7169 66.7649 41.9003 66.6198 41.9238 66.4171C41.9474 66.2145 41.8022 66.0311 41.5995 66.0075L39.3239 65.7431L38.8441 65.2633L40.1929 65.42C40.3955 65.4436 40.5789 65.2984 40.6025 65.0958C40.626 64.8931 40.4808 64.7097 40.2782 64.6862L38.0026 64.4217L35.7279 62.1471H38.9127L40.7329 63.5883C40.8928 63.7149 41.1251 63.6879 41.2518 63.528C41.3784 63.368 41.3514 63.1357 41.1915 63.0091L40.1028 62.1471H40.7814L42.6016 63.5883C42.7615 63.7149 42.9938 63.6879 43.1205 63.528C43.2471 63.368 43.2201 63.1357 43.0602 63.0091L41.9715 62.1471H43.1542C43.3582 62.1471 43.5236 61.9817 43.5236 61.7777C43.5236 61.5737 43.3582 61.4083 43.1542 61.4083H41.9956L43.0602 60.5654C43.2201 60.4388 43.2471 60.2064 43.1205 60.0465C42.9938 59.8866 42.7615 59.8596 42.6016 59.9862L40.8055 61.4083H40.1269L41.1915 60.5654C41.3514 60.4388 41.3784 60.2064 41.2518 60.0465C41.1251 59.8866 40.8928 59.8596 40.7329 59.9862L38.9368 61.4083H35.7199L37.9719 59.1563L40.2781 58.8883C40.4808 58.8647 40.6259 58.6813 40.6024 58.4787C40.5788 58.2761 40.3955 58.1309 40.1928 58.1544L38.8135 58.3147L39.2933 57.8349L41.5995 57.5669C41.8021 57.5434 41.9473 57.36 41.9238 57.1573C41.9002 56.9547 41.7168 56.8095 41.5142 56.8331L40.1348 56.9934L40.9711 56.157C41.1154 56.0128 41.1154 55.7789 40.9711 55.6346C40.8269 55.4904 40.593 55.4904 40.4487 55.6346L39.6295 56.4538L39.7863 55.1051C39.8098 54.9025 39.6646 54.7191 39.462 54.6956C39.2594 54.672 39.076 54.8172 39.0524 55.0198L38.788 57.2954L38.3082 57.7752L38.4649 56.4265C38.4885 56.2238 38.3433 56.0405 38.1406 56.0169C37.938 55.9934 37.7546 56.1386 37.7311 56.3412L37.4666 58.6168L35.1919 60.8915V57.7066L36.6331 55.8864C36.7598 55.7265 36.7328 55.4941 36.5728 55.3675C36.4129 55.2409 36.1806 55.2679 36.0539 55.4278L35.1919 56.5165V55.8379L36.6331 54.0177C36.7598 53.8578 36.7328 53.6255 36.5728 53.4988C36.4129 53.3722 36.1805 53.3992 36.0539 53.5591L35.1919 54.6478V53.4651C35.1919 53.2611 35.0266 53.0957 34.8225 53.0957Z" fill="url(#paint2_linear_452_1815)"/>
<rect width="4.53599" height="12.0481" rx="2.268" transform="matrix(0.969122 0.246583 -0.271571 0.962418 35.0191 74.2863)" fill="url(#paint3_linear_452_1815)"/>
<rect width="4.53599" height="12.0481" rx="2.268" transform="matrix(0.969122 0.246583 -0.271571 0.962418 65.0191 70.2863)" fill="url(#paint4_linear_452_1815)"/>
<rect width="4.53599" height="12.0481" rx="2.268" transform="matrix(0.969122 0.246583 -0.271571 0.962418 49.0191 55.2863)" fill="url(#paint5_linear_452_1815)"/>
<g filter="url(#filter0_b_452_1815)">
<mask id="path-7-outside-1_452_1815" maskUnits="userSpaceOnUse" x="11" y="12" width="78" height="48" fill="black">
<rect fill="white" x="11" y="12" width="78" height="48"/>
<path fill-rule="evenodd" clip-rule="evenodd" d="M66.2975 34.0709C66.2975 34.7716 66.2612 35.4638 66.1902 36.1459C68.381 34.2666 71.2424 33.129 74.3729 33.129C81.2655 33.129 86.8531 38.6439 86.8531 45.4469C86.8531 52.2499 81.2655 57.7648 74.3729 57.7648H25.8573C25.8539 57.7648 25.8506 57.7648 25.8472 57.7648C25.8438 57.7648 25.8405 57.7648 25.8371 57.7648H25.7738V57.7646C18.7123 57.7256 13 52.0635 13 45.0846C13 38.1313 18.6703 32.4852 25.696 32.4053C26.5538 22.0997 35.2997 14 45.9622 14C57.1931 14 66.2975 22.9861 66.2975 34.0709Z"/>
</mask>
<path fill-rule="evenodd" clip-rule="evenodd" d="M66.2975 34.0709C66.2975 34.7716 66.2612 35.4638 66.1902 36.1459C68.381 34.2666 71.2424 33.129 74.3729 33.129C81.2655 33.129 86.8531 38.6439 86.8531 45.4469C86.8531 52.2499 81.2655 57.7648 74.3729 57.7648H25.8573C25.8539 57.7648 25.8506 57.7648 25.8472 57.7648C25.8438 57.7648 25.8405 57.7648 25.8371 57.7648H25.7738V57.7646C18.7123 57.7256 13 52.0635 13 45.0846C13 38.1313 18.6703 32.4852 25.696 32.4053C26.5538 22.0997 35.2997 14 45.9622 14C57.1931 14 66.2975 22.9861 66.2975 34.0709Z" fill="url(#paint6_linear_452_1815)"/>
<path d="M66.1902 36.1459L64.2009 35.9389L63.6812 40.9331L67.4923 37.664L66.1902 36.1459ZM25.7738 57.7648H23.7738V59.7648H25.7738V57.7648ZM25.7738 57.7646H27.7738V55.7756L25.7848 55.7646L25.7738 57.7646ZM25.696 32.4053L25.7188 34.4051L27.5382 34.3844L27.6891 32.5712L25.696 32.4053ZM68.1794 36.3529C68.2576 35.6022 68.2975 34.8408 68.2975 34.0709H64.2975C64.2975 34.7023 64.2648 35.3255 64.2009 35.9389L68.1794 36.3529ZM74.3729 31.129C70.7497 31.129 67.4299 32.4475 64.888 34.6279L67.4923 37.664C69.3322 36.0858 71.735 35.129 74.3729 35.129V31.129ZM88.8531 45.4469C88.8531 37.5147 82.3453 31.129 74.3729 31.129V35.129C80.1857 35.129 84.8531 39.773 84.8531 45.4469H88.8531ZM74.3729 59.7648C82.3453 59.7648 88.8531 53.379 88.8531 45.4469H84.8531C84.8531 51.1207 80.1857 55.7648 74.3729 55.7648V59.7648ZM74.3729 55.7648H25.8573V59.7648H74.3729V55.7648ZM25.8472 59.7648C25.8495 59.7648 25.8518 59.7648 25.8534 59.7648C25.8551 59.7648 25.8563 59.7648 25.8573 59.7648V55.7648C25.8549 55.7648 25.8527 55.7648 25.8511 55.7648C25.8493 55.7648 25.8482 55.7648 25.8472 55.7648V59.7648ZM25.8371 59.7648C25.8381 59.7648 25.8393 59.7648 25.841 59.7648C25.8426 59.7648 25.8449 59.7648 25.8472 59.7648V55.7648C25.8462 55.7648 25.8451 55.7648 25.8433 55.7648C25.8417 55.7648 25.8395 55.7648 25.8371 55.7648V59.7648ZM25.8371 55.7648H25.7738V59.7648H25.8371V55.7648ZM27.7738 57.7648V57.7646H23.7738V57.7648H27.7738ZM11 45.0846C11 53.1888 17.6261 59.7196 25.7627 59.7645L25.7848 55.7646C19.7984 55.7315 15 50.9382 15 45.0846H11ZM25.6732 30.4054C17.5776 30.4975 11 37.0102 11 45.0846H15C15 39.2525 19.7631 34.4729 25.7188 34.4051L25.6732 30.4054ZM45.9622 12C34.2725 12 24.648 20.8841 23.7029 32.2394L27.6891 32.5712C28.4595 23.3152 36.3268 16 45.9622 16V12ZM68.2975 34.0709C68.2975 21.8569 58.2729 12 45.9622 12V16C56.1133 16 64.2975 24.1152 64.2975 34.0709H68.2975Z" fill="url(#paint7_linear_452_1815)" mask="url(#path-7-outside-1_452_1815)"/>
</g>
<defs>
<filter id="filter0_b_452_1815" x="1" y="2" width="97.8531" height="67.7648" filterUnits="userSpaceOnUse" color-interpolation-filters="sRGB">
<feFlood flood-opacity="0" result="BackgroundImageFix"/>
<feGaussianBlur in="BackgroundImageFix" stdDeviation="5"/>
<feComposite in2="SourceAlpha" operator="in" result="effect1_backgroundBlur_452_1815"/>
<feBlend mode="normal" in="SourceGraphic" in2="effect1_backgroundBlur_452_1815" result="shape"/>
</filter>
<linearGradient id="paint0_linear_452_1815" x1="72.2468" y1="46.9826" x2="57.2377" y2="61.6256" gradientUnits="userSpaceOnUse">
<stop stop-color="#D6E9FF"/>
<stop offset="1" stop-color="#2898FF"/>
</linearGradient>
<linearGradient id="paint1_linear_452_1815" x1="56.424" y1="72.6698" x2="46.0656" y2="82.7755" gradientUnits="userSpaceOnUse">
<stop stop-color="#D6E9FF"/>
<stop offset="1" stop-color="#2898FF"/>
</linearGradient>
<linearGradient id="paint2_linear_452_1815" x1="41.2543" y1="54.5298" x2="28.7819" y2="66.6979" gradientUnits="userSpaceOnUse">
<stop stop-color="#D6E9FF"/>
<stop offset="1" stop-color="#2898FF"/>
</linearGradient>
<linearGradient id="paint3_linear_452_1815" x1="0.503999" y1="10.6023" x2="4.23869" y2="1.32607" gradientUnits="userSpaceOnUse">
<stop stop-color="#3981EE"/>
<stop offset="1" stop-color="#92BDFF"/>
</linearGradient>
<linearGradient id="paint4_linear_452_1815" x1="0.503999" y1="10.6023" x2="4.23869" y2="1.32607" gradientUnits="userSpaceOnUse">
<stop stop-color="#3981EE"/>
<stop offset="1" stop-color="#92BDFF"/>
</linearGradient>
<linearGradient id="paint5_linear_452_1815" x1="0.503999" y1="10.6023" x2="4.23869" y2="1.32607" gradientUnits="userSpaceOnUse">
<stop stop-color="#3981EE"/>
<stop offset="1" stop-color="#92BDFF"/>
</linearGradient>
<linearGradient id="paint6_linear_452_1815" x1="35.9543" y1="13.8175" x2="53.3213" y2="58.1033" gradientUnits="userSpaceOnUse">
<stop stop-color="white"/>
<stop offset="0.708333" stop-color="#9DDCFF" stop-opacity="0.69"/>
</linearGradient>
<linearGradient id="paint7_linear_452_1815" x1="47.5313" y1="-1.15512" x2="71.5043" y2="75.858" gradientUnits="userSpaceOnUse">
<stop stop-color="white"/>
<stop offset="0.713542" stop-color="#85C6EC" stop-opacity="0.71"/>
</linearGradient>
</defs>
</svg>
