<svg width="22" height="17" viewBox="0 0 22 17" fill="none" xmlns="http://www.w3.org/2000/svg">
<path d="M1.51137 3.1889C2.3522 3.1889 3.02274 2.48151 3.02274 1.59445C3.02274 0.718626 2.3522 0 1.51137 0C0.68118 0 0 0.718626 0 1.59445C0 2.48151 0.68118 3.1889 1.51137 3.1889ZM6.51379 2.67239H20.9676C21.5423 2.67239 22 2.20079 22 1.59445C22 0.988111 21.553 0.516513 20.9676 0.516513H6.51379C5.94969 0.516513 5.49202 0.988111 5.49202 1.59445C5.49202 2.20079 5.93904 2.67239 6.51379 2.67239ZM1.51137 10.0945C2.3522 10.0945 3.02274 9.38705 3.02274 8.5C3.02274 7.62417 2.3522 6.90555 1.51137 6.90555C0.68118 6.90555 0 7.62417 0 8.5C0 9.38705 0.68118 10.0945 1.51137 10.0945ZM6.51379 9.57794H20.9676C21.5423 9.57794 22 9.10634 22 8.5C22 7.89366 21.553 7.42206 20.9676 7.42206H6.51379C5.94969 7.42206 5.49202 7.89366 5.49202 8.5C5.49202 9.10634 5.93904 9.57794 6.51379 9.57794ZM1.51137 17C2.3522 17 3.02274 16.2926 3.02274 15.4055C3.02274 14.5297 2.3522 13.8111 1.51137 13.8111C0.68118 13.8111 0 14.5297 0 15.4055C0 16.2926 0.68118 17 1.51137 17ZM6.51379 16.4835H20.9676C21.5423 16.4835 22 16.0119 22 15.4055C22 14.7992 21.553 14.3276 20.9676 14.3276H6.51379C5.94969 14.3276 5.49202 14.7992 5.49202 15.4055C5.49202 16.0119 5.93904 16.4835 6.51379 16.4835Z" fill="#C4C4C4"/>
</svg>
