<svg width="100" height="100" viewBox="0 0 100 100" fill="none" xmlns="http://www.w3.org/2000/svg">
<path d="M38.725 20.9075L38.725 20.9075L25.3134 44.3056C24.6318 45.4947 25.4652 47.0246 26.875 47.0246H30.9114L19.2317 68.3029C18.7425 69.1941 19.083 70.1178 19.6919 70.602C20.3037 71.0884 21.29 71.2095 22.0403 70.5044L55.5664 38.9972C56.7411 37.8933 55.9995 35.8589 54.3358 35.8589H50.2812L57.7607 22.7141C58.4373 21.525 57.6034 20 56.1962 20H40.2866C39.6378 20 39.0447 20.3498 38.725 20.9075Z" fill="url(#paint0_linear_452_2164)" stroke="url(#paint1_linear_452_2164)" stroke-width="2"/>
<circle cx="62.5" cy="52.5" r="5.5" fill="url(#paint2_linear_452_2164)"/>
<circle cx="73.5" cy="69.5" r="5.5" fill="url(#paint3_linear_452_2164)"/>
<circle cx="52.5" cy="69.5" r="5.5" fill="url(#paint4_linear_452_2164)"/>
<defs>
<linearGradient id="paint0_linear_452_2164" x1="47.9477" y1="24.7324" x2="19.7398" y2="65.4623" gradientUnits="userSpaceOnUse">
<stop offset="0.182844" stop-color="#FFE600"/>
<stop offset="0.980542" stop-color="#F09000"/>
</linearGradient>
<linearGradient id="paint1_linear_452_2164" x1="28.8918" y1="6.97094" x2="49.2671" y2="90.409" gradientUnits="userSpaceOnUse">
<stop offset="0.14688" stop-color="#FFE600"/>
<stop offset="0.938214" stop-color="#F09000"/>
</linearGradient>
<linearGradient id="paint2_linear_452_2164" x1="62.5" y1="47" x2="62.5" y2="58" gradientUnits="userSpaceOnUse">
<stop stop-color="#CFE6FF"/>
<stop offset="1" stop-color="#2898FF"/>
</linearGradient>
<linearGradient id="paint3_linear_452_2164" x1="73.5" y1="64" x2="73.5" y2="75" gradientUnits="userSpaceOnUse">
<stop stop-color="#CFE6FF"/>
<stop offset="1" stop-color="#2898FF"/>
</linearGradient>
<linearGradient id="paint4_linear_452_2164" x1="52.5" y1="64" x2="52.5" y2="75" gradientUnits="userSpaceOnUse">
<stop stop-color="#CFE6FF"/>
<stop offset="1" stop-color="#2898FF"/>
</linearGradient>
</defs>
</svg>
