<svg width="100" height="100" viewBox="0 0 100 100" fill="none" xmlns="http://www.w3.org/2000/svg">
<path fill-rule="evenodd" clip-rule="evenodd" d="M61.9414 29.8457C61.9414 28.8263 62.7982 28 63.8552 28C68.6469 28 72.5228 31.7548 72.5228 36.3765C72.5228 40.9983 68.6469 44.7531 63.8552 44.7531H36.3096C35.2527 44.7531 34.3959 43.9267 34.3959 42.9074C34.3959 41.8881 35.2527 41.0617 36.3096 41.0617H63.8552C66.5237 41.0617 68.6954 38.9686 68.6954 36.3765C68.6954 33.7845 66.5237 31.6914 63.8552 31.6914C62.7982 31.6914 61.9414 30.865 61.9414 29.8457ZM21 51.142C21 50.1226 21.8568 49.2963 22.9137 49.2963L60.599 49.2963C61.6559 49.2963 62.5127 50.1226 62.5127 51.142C62.5127 52.1613 61.6559 52.9877 60.599 52.9877L22.9137 52.9877C21.8568 52.9877 21 52.1613 21 51.142ZM64.868 51.142C64.868 50.1226 65.7248 49.2963 66.7817 49.2963H75.0254C76.0823 49.2963 76.9391 50.1226 76.9391 51.142C76.9391 52.1613 76.0823 52.9877 75.0254 52.9877H66.7817C65.7248 52.9877 64.868 52.1613 64.868 51.142ZM23.9442 59.0926C23.9442 58.0733 24.801 57.2469 25.8579 57.2469H34.1015C35.1584 57.2469 36.0152 58.0733 36.0152 59.0926C36.0152 60.1119 35.1584 60.9383 34.1015 60.9383H25.8579C24.801 60.9383 23.9442 60.1119 23.9442 59.0926ZM38.665 59.0926C38.665 58.0733 39.5218 57.2469 40.5787 57.2469H70.3394C75.1291 57.2469 79 61.0036 79 65.6235C79 70.2433 75.1291 74 70.3394 74C69.2825 74 68.4257 73.1737 68.4257 72.1543C68.4257 71.135 69.2825 70.3086 70.3394 70.3086C73.0021 70.3086 75.1726 68.2174 75.1726 65.6235C75.1726 63.0295 73.0021 60.9383 70.3394 60.9383H40.5787C39.5218 60.9383 38.665 60.1119 38.665 59.0926Z" fill="url(#paint0_linear_312_2378)"/>
<defs>
<linearGradient id="paint0_linear_312_2378" x1="71.4281" y1="31.795" x2="39.1087" y2="71.5517" gradientUnits="userSpaceOnUse">
<stop stop-color="#D6E9FF"/>
<stop offset="1" stop-color="#2898FF"/>
</linearGradient>
</defs>
</svg>
