<svg width="18" height="20" viewBox="0 0 18 20" fill="none" xmlns="http://www.w3.org/2000/svg">
<path d="M4.52637 19.6611H12.8496C14.0537 19.6611 14.7568 19.0195 14.8096 17.8242L15.3633 5.12402H16.5762C17.0244 5.12402 17.3672 4.77246 17.3672 4.33301C17.3672 3.89355 17.0156 3.55957 16.5762 3.55957H12.7617V2.24121C12.7617 0.834961 11.8564 0 10.3447 0H7.00488C5.49316 0 4.58789 0.834961 4.58789 2.24121V3.55957H0.791016C0.351562 3.55957 0 3.90234 0 4.33301C0 4.78125 0.351562 5.12402 0.791016 5.12402H2.0127L2.5752 17.8242C2.61914 19.0195 3.32227 19.6611 4.52637 19.6611ZM6.41602 2.32031C6.41602 1.9248 6.68848 1.66992 7.12793 1.66992H10.2305C10.6699 1.66992 10.9424 1.9248 10.9424 2.32031V3.55957H6.41602V2.32031ZM5.8623 16.9629C5.51074 16.9629 5.26465 16.7344 5.25586 16.3828L4.99219 7.04883C4.9834 6.69727 5.22949 6.45996 5.59863 6.45996C5.9502 6.45996 6.19629 6.68848 6.20508 7.04004L6.46875 16.374C6.48633 16.7256 6.24023 16.9629 5.8623 16.9629ZM8.68359 16.9629C8.31445 16.9629 8.06836 16.7344 8.06836 16.3828V7.04004C8.06836 6.69727 8.31445 6.45996 8.68359 6.45996C9.05273 6.45996 9.30762 6.69727 9.30762 7.04004V16.3828C9.30762 16.7344 9.05273 16.9629 8.68359 16.9629ZM11.5049 16.9717C11.127 16.9717 10.8809 16.7256 10.8984 16.3828L11.1621 7.04004C11.1709 6.68848 11.417 6.45996 11.7686 6.45996C12.1377 6.45996 12.3838 6.69727 12.375 7.04883L12.1113 16.3828C12.1025 16.7344 11.8564 16.9717 11.5049 16.9717Z" fill="#E5E5E5"/>
</svg>
