<svg width="100" height="100" viewBox="0 0 100 100" fill="none" xmlns="http://www.w3.org/2000/svg">
<path fill-rule="evenodd" clip-rule="evenodd" d="M67.5108 36.1551C67.5108 35.1181 68.3624 34.2775 69.4129 34.2775C74.1756 34.2775 78.0282 38.0974 78.0282 42.7992C78.0282 47.5011 74.1756 51.321 69.4129 51.321H42.034C40.9835 51.321 40.1319 50.4804 40.1319 49.4433C40.1319 48.4063 40.9835 47.5657 42.034 47.5657H69.4129C72.0653 47.5657 74.2239 45.4363 74.2239 42.7992C74.2239 40.1622 72.0653 38.0328 69.4129 38.0328C68.3624 38.0328 67.5108 37.1922 67.5108 36.1551ZM26.817 57.8207C26.817 56.7837 27.6686 55.943 28.7191 55.943L66.1764 55.943C67.227 55.943 68.0786 56.7837 68.0786 57.8207C68.0786 58.8577 67.227 59.6984 66.1764 59.6984L28.7191 59.6984C27.6686 59.6984 26.817 58.8577 26.817 57.8207ZM70.4197 57.8207C70.4197 56.7837 71.2713 55.943 72.3218 55.943H80.5156C81.5661 55.943 82.4177 56.7837 82.4177 57.8207C82.4177 58.8577 81.5661 59.6984 80.5156 59.6984H72.3218C71.2713 59.6984 70.4197 58.8577 70.4197 57.8207ZM29.7433 65.9092C29.7433 64.8721 30.5949 64.0315 31.6454 64.0315H39.8392C40.8898 64.0315 41.7414 64.8721 41.7414 65.9092C41.7414 66.9462 40.8898 67.7868 39.8392 67.7868H31.6454C30.5949 67.7868 29.7433 66.9462 29.7433 65.9092ZM44.3751 65.9092C44.3751 64.8721 45.2267 64.0315 46.2772 64.0315H75.8579C80.6187 64.0315 84.4662 67.8533 84.4662 72.5533C84.4662 77.2532 80.6187 81.075 75.8579 81.075C74.8074 81.075 73.9558 80.2344 73.9558 79.1974C73.9558 78.1604 74.8074 77.3197 75.8579 77.3197C78.5045 77.3197 80.6619 75.1922 80.6619 72.5533C80.6619 69.9144 78.5045 67.7868 75.8579 67.7868H46.2772C45.2267 67.7868 44.3751 66.9462 44.3751 65.9092Z" fill="url(#paint0_linear_452_2051)"/>
<path d="M54.9912 43.6631C55.4306 43.6631 55.6943 43.3555 55.6943 42.916V41.1055L57.039 41.9053C57.3818 42.1338 57.7597 42.1074 57.9882 41.7559C58.1728 41.457 58.0849 41.0703 57.7158 40.8506L55.6943 39.6904V38.6006L55.5097 35.5596L58.0674 37.2383L59.0078 37.7744L59.0166 40.1123C59.0166 40.5342 59.2978 40.8154 59.6494 40.7979C60.0713 40.7891 60.2822 40.4639 60.2558 40.0508L60.2295 38.4775L61.8115 39.4004C62.1894 39.6201 62.5761 39.5234 62.7871 39.1631C62.9892 38.7852 62.8838 38.3896 62.5058 38.1787L60.9414 37.2734L62.3037 36.5C62.6728 36.3154 62.8398 35.9727 62.6465 35.6123C62.4707 35.2959 62.1015 35.1904 61.7324 35.3926L59.7021 36.5615L58.7617 36.0166L56.0107 34.6543L58.7617 33.292L59.7021 32.7471L61.7236 33.9072C62.0927 34.1182 62.4795 34.0127 62.6552 33.6875C62.8398 33.3271 62.6728 32.9844 62.3037 32.7998L60.9414 32.0352L62.5146 31.1299C62.8925 30.9102 63.0068 30.5234 62.7959 30.1455C62.5849 29.7852 62.1894 29.6797 61.8115 29.9082L60.2295 30.8135L60.247 29.249C60.2822 28.8359 60.0713 28.5195 59.6582 28.5107C59.2978 28.4932 59.0166 28.7656 59.0166 29.1875L59.0078 31.5254L58.0674 32.0703L55.5097 33.7578L55.6943 30.6992V29.6182L57.7158 28.4492C58.0849 28.2295 58.1728 27.8516 57.9882 27.5439C57.7685 27.1924 57.3818 27.166 57.039 27.3945L55.6943 28.1943V26.3838C55.6943 25.9443 55.4306 25.6455 54.9912 25.6455C54.5781 25.6455 54.2968 25.9443 54.2968 26.3838V28.1943L52.9433 27.3945C52.5918 27.166 52.2226 27.1924 52.0029 27.5439C51.8095 27.8516 51.9062 28.2295 52.2754 28.4492L54.2968 29.6182V30.6992L54.4814 33.7578L51.9238 32.0703L50.9834 31.5254L50.9746 29.1875C50.9746 28.7656 50.6933 28.4932 50.3418 28.5107C49.9199 28.5195 49.709 28.8359 49.7353 29.249L49.7617 30.8135L48.1797 29.9082C47.8105 29.6973 47.4062 29.7852 47.1953 30.1455C46.9756 30.5234 47.1074 30.9189 47.4765 31.1299L49.0498 32.0352L47.6875 32.7998C47.3183 32.9844 47.1513 33.3184 47.3359 33.6963C47.5029 34.0127 47.8896 34.1182 48.2675 33.9072L50.289 32.7471L51.2207 33.292L53.9804 34.6543L51.2295 36.0166L50.2802 36.5615L48.2588 35.3926C47.8896 35.1816 47.5117 35.2959 47.3535 35.6123C47.1513 35.9902 47.3183 36.3154 47.6875 36.5L49.0498 37.2734L47.4765 38.1787C47.1074 38.3896 46.9843 38.7939 47.1953 39.1543C47.415 39.5322 47.8105 39.6113 48.1797 39.4004L49.7617 38.4951L49.7353 40.0508C49.709 40.4639 49.9199 40.7891 50.333 40.7979C50.6933 40.8066 50.9746 40.5342 50.9746 40.1123L50.9922 37.7744L51.9238 37.2383L54.4814 35.5508L54.2968 38.6006V39.6816L52.2754 40.8594C51.9062 41.0791 51.8095 41.457 52.0029 41.7559C52.2226 42.1074 52.5918 42.1338 52.9433 41.9053L54.2968 41.1055V42.916C54.2968 43.3555 54.5781 43.6631 54.9912 43.6631Z" fill="#4DA9FF"/>
<path d="M34.9912 43.6631C35.4306 43.6631 35.6943 43.3555 35.6943 42.916V41.1055L37.039 41.9053C37.3818 42.1338 37.7597 42.1074 37.9882 41.7559C38.1728 41.457 38.0849 41.0703 37.7158 40.8506L35.6943 39.6904V38.6006L35.5097 35.5596L38.0674 37.2383L39.0078 37.7744L39.0166 40.1123C39.0166 40.5342 39.2978 40.8154 39.6494 40.7979C40.0713 40.7891 40.2822 40.4639 40.2558 40.0508L40.2295 38.4775L41.8115 39.4004C42.1894 39.6201 42.5761 39.5234 42.7871 39.1631C42.9892 38.7852 42.8838 38.3896 42.5058 38.1787L40.9414 37.2734L42.3037 36.5C42.6728 36.3154 42.8398 35.9727 42.6465 35.6123C42.4707 35.2959 42.1015 35.1904 41.7324 35.3926L39.7021 36.5615L38.7617 36.0166L36.0107 34.6543L38.7617 33.292L39.7021 32.7471L41.7236 33.9072C42.0927 34.1182 42.4795 34.0127 42.6552 33.6875C42.8398 33.3271 42.6728 32.9844 42.3037 32.7998L40.9414 32.0352L42.5146 31.1299C42.8925 30.9102 43.0068 30.5234 42.7959 30.1455C42.5849 29.7852 42.1894 29.6797 41.8115 29.9082L40.2295 30.8135L40.247 29.249C40.2822 28.8359 40.0713 28.5195 39.6582 28.5107C39.2978 28.4932 39.0166 28.7656 39.0166 29.1875L39.0078 31.5254L38.0674 32.0703L35.5097 33.7578L35.6943 30.6992V29.6182L37.7158 28.4492C38.0849 28.2295 38.1728 27.8516 37.9882 27.5439C37.7685 27.1924 37.3818 27.166 37.039 27.3945L35.6943 28.1943V26.3838C35.6943 25.9443 35.4306 25.6455 34.9912 25.6455C34.5781 25.6455 34.2968 25.9443 34.2968 26.3838V28.1943L32.9433 27.3945C32.5918 27.166 32.2226 27.1924 32.0029 27.5439C31.8095 27.8516 31.9062 28.2295 32.2754 28.4492L34.2968 29.6182V30.6992L34.4814 33.7578L31.9238 32.0703L30.9834 31.5254L30.9746 29.1875C30.9746 28.7656 30.6933 28.4932 30.3418 28.5107C29.9199 28.5195 29.709 28.8359 29.7353 29.249L29.7617 30.8135L28.1797 29.9082C27.8105 29.6973 27.4062 29.7852 27.1953 30.1455C26.9756 30.5234 27.1074 30.9189 27.4765 31.1299L29.0498 32.0352L27.6875 32.7998C27.3183 32.9844 27.1513 33.3184 27.3359 33.6963C27.5029 34.0127 27.8896 34.1182 28.2675 33.9072L30.289 32.7471L31.2207 33.292L33.9804 34.6543L31.2295 36.0166L30.2802 36.5615L28.2588 35.3926C27.8896 35.1816 27.5117 35.2959 27.3535 35.6123C27.1513 35.9902 27.3183 36.3154 27.6875 36.5L29.0498 37.2734L27.4765 38.1787C27.1074 38.3896 26.9843 38.7939 27.1953 39.1543C27.415 39.5322 27.8105 39.6113 28.1797 39.4004L29.7617 38.4951L29.7353 40.0508C29.709 40.4639 29.9199 40.7891 30.333 40.7979C30.6933 40.8066 30.9746 40.5342 30.9746 40.1123L30.9922 37.7744L31.9238 37.2383L34.4814 35.5508L34.2968 38.6006V39.6816L32.2754 40.8594C31.9062 41.0791 31.8095 41.457 32.0029 41.7559C32.2226 42.1074 32.5918 42.1338 32.9433 41.9053L34.2968 41.1055V42.916C34.2968 43.3555 34.5781 43.6631 34.9912 43.6631Z" fill="#4DA9FF"/>
<path d="M14.9912 43.6631C15.4306 43.6631 15.6943 43.3555 15.6943 42.916V41.1055L17.039 41.9053C17.3818 42.1338 17.7597 42.1074 17.9882 41.7559C18.1728 41.457 18.0849 41.0703 17.7158 40.8506L15.6943 39.6904V38.6006L15.5097 35.5596L18.0674 37.2383L19.0078 37.7744L19.0166 40.1123C19.0166 40.5342 19.2978 40.8154 19.6494 40.7979C20.0713 40.7891 20.2822 40.4639 20.2558 40.0508L20.2295 38.4775L21.8115 39.4004C22.1894 39.6201 22.5761 39.5234 22.7871 39.1631C22.9892 38.7852 22.8838 38.3896 22.5058 38.1787L20.9414 37.2734L22.3037 36.5C22.6728 36.3154 22.8398 35.9727 22.6465 35.6123C22.4707 35.2959 22.1015 35.1904 21.7324 35.3926L19.7021 36.5615L18.7617 36.0166L16.0107 34.6543L18.7617 33.292L19.7021 32.7471L21.7236 33.9072C22.0927 34.1182 22.4795 34.0127 22.6552 33.6875C22.8398 33.3271 22.6728 32.9844 22.3037 32.7998L20.9414 32.0352L22.5146 31.1299C22.8925 30.9102 23.0068 30.5234 22.7959 30.1455C22.5849 29.7852 22.1894 29.6797 21.8115 29.9082L20.2295 30.8135L20.247 29.249C20.2822 28.8359 20.0713 28.5195 19.6582 28.5107C19.2978 28.4932 19.0166 28.7656 19.0166 29.1875L19.0078 31.5254L18.0674 32.0703L15.5097 33.7578L15.6943 30.6992V29.6182L17.7158 28.4492C18.0849 28.2295 18.1728 27.8516 17.9882 27.5439C17.7685 27.1924 17.3818 27.166 17.039 27.3945L15.6943 28.1943V26.3838C15.6943 25.9443 15.4306 25.6455 14.9912 25.6455C14.5781 25.6455 14.2968 25.9443 14.2968 26.3838V28.1943L12.9433 27.3945C12.5918 27.166 12.2226 27.1924 12.0029 27.5439C11.8095 27.8516 11.9062 28.2295 12.2754 28.4492L14.2968 29.6182V30.6992L14.4814 33.7578L11.9238 32.0703L10.9834 31.5254L10.9746 29.1875C10.9746 28.7656 10.6933 28.4932 10.3418 28.5107C9.91989 28.5195 9.70895 28.8359 9.73532 29.249L9.76169 30.8135L8.17966 29.9082C7.81052 29.6973 7.40622 29.7852 7.19528 30.1455C6.97555 30.5234 7.10739 30.9189 7.47653 31.1299L9.04977 32.0352L7.68747 32.7998C7.31833 32.9844 7.15134 33.3184 7.33591 33.6963C7.5029 34.0127 7.88962 34.1182 8.26755 33.9072L10.289 32.7471L11.2207 33.292L13.9804 34.6543L11.2295 36.0166L10.2802 36.5615L8.25876 35.3926C7.88962 35.1816 7.51169 35.2959 7.35348 35.6123C7.15134 35.9902 7.31833 36.3154 7.68747 36.5L9.04977 37.2734L7.47653 38.1787C7.10739 38.3896 6.98434 38.7939 7.19528 39.1543C7.41501 39.5322 7.81052 39.6113 8.17966 39.4004L9.76169 38.4951L9.73532 40.0508C9.70895 40.4639 9.91989 40.7891 10.333 40.7979C10.6933 40.8066 10.9746 40.5342 10.9746 40.1123L10.9922 37.7744L11.9238 37.2383L14.4814 35.5508L14.2968 38.6006V39.6816L12.2754 40.8594C11.9062 41.0791 11.8095 41.457 12.0029 41.7559C12.2226 42.1074 12.5918 42.1338 12.9433 41.9053L14.2968 41.1055V42.916C14.2968 43.3555 14.5781 43.6631 14.9912 43.6631Z" fill="#4DA9FF"/>
<defs>
<linearGradient id="paint0_linear_452_2051" x1="76.9401" y1="38.1383" x2="43.9123" y2="77.8323" gradientUnits="userSpaceOnUse">
<stop stop-color="#D6E9FF"/>
<stop offset="1" stop-color="#2898FF"/>
</linearGradient>
</defs>
</svg>
