<svg width="100" height="100" viewBox="0 0 100 100" fill="none" xmlns="http://www.w3.org/2000/svg">
<path d="M50.2603 74.7391C63.9234 74.7391 74.9994 63.663 74.9994 50C74.9994 36.3369 63.9234 25.2609 50.2603 25.2609C36.5973 25.2609 25.5212 36.3369 25.5212 50C25.5212 63.663 36.5973 74.7391 50.2603 74.7391Z" fill="url(#paint0_linear_312_2362)" stroke="url(#paint1_linear_312_2362)" stroke-width="2"/>
<path fill-rule="evenodd" clip-rule="evenodd" d="M50.2603 11C49.0897 11 48.1408 11.949 48.1408 13.1196V19.9022C48.1408 21.0728 49.0897 22.0217 50.2603 22.0217C51.4309 22.0217 52.3799 21.0728 52.3799 19.9022V13.1196C52.3799 11.949 51.4309 11 50.2603 11ZM50.2603 77.9783C49.0897 77.9783 48.1408 78.9272 48.1408 80.0978V86.8804C48.1408 88.051 49.0897 89 50.2603 89C51.4309 89 52.3799 88.051 52.3799 86.8804V80.0978C52.3799 78.9272 51.4309 77.9783 50.2603 77.9783ZM66.865 17.0008C67.4503 15.987 68.7466 15.6397 69.7604 16.225C70.7741 16.8103 71.1215 18.1066 70.5362 19.1204L67.1449 24.9943C66.5596 26.0081 65.2633 26.3554 64.2495 25.7701C63.2357 25.1848 62.8884 23.8885 63.4737 22.8747L66.865 17.0008ZM36.2712 74.2299C35.2575 73.6446 33.9611 73.9919 33.3758 75.0057L29.9845 80.8796C29.3992 81.8934 29.7466 83.1897 30.7604 83.775C31.7741 84.3603 33.0704 84.0129 33.6557 82.9992L37.047 77.1253C37.6323 76.1115 37.285 74.8152 36.2712 74.2299ZM81.14 29.7242C82.1538 29.1389 83.4501 29.4862 84.0354 30.5C84.6207 31.5138 84.2733 32.8101 83.2595 33.3954L77.3856 36.7867C76.3719 37.372 75.0756 37.0246 74.4903 36.0109C73.905 34.9971 74.2523 33.7008 75.2661 33.1155L81.14 29.7242ZM26.0305 63.9891C25.4452 62.9753 24.1489 62.628 23.1351 63.2133L17.2612 66.6046C16.2474 67.1899 15.9001 68.4862 16.4854 69.5C17.0707 70.5138 18.367 70.8611 19.3808 70.2758L25.2547 66.8845C26.2685 66.2992 26.6158 65.0029 26.0305 63.9891ZM87.1408 47.8804C88.3114 47.8804 89.2604 48.8294 89.2604 50C89.2604 51.1706 88.3114 52.1196 87.1408 52.1196H80.3582C79.1876 52.1196 78.2386 51.1706 78.2386 50C78.2386 48.8294 79.1876 47.8804 80.3582 47.8804H87.1408ZM22.2821 50C22.2821 48.8294 21.3332 47.8804 20.1625 47.8804H13.3799C12.2093 47.8804 11.2604 48.8294 11.2604 50C11.2604 51.1706 12.2093 52.1196 13.3799 52.1196H20.1625C21.3332 52.1196 22.2821 51.1706 22.2821 50ZM83.2595 66.6046C84.2733 67.1899 84.6207 68.4862 84.0354 69.5C83.4501 70.5138 82.1538 70.8611 81.14 70.2758L75.2661 66.8845C74.2523 66.2992 73.905 65.0029 74.4903 63.9891C75.0756 62.9753 76.3719 62.628 77.3856 63.2133L83.2595 66.6046ZM26.0305 36.0109C26.6158 34.9971 26.2684 33.7008 25.2547 33.1155L19.3808 29.7242C18.367 29.1389 17.0707 29.4862 16.4854 30.5C15.9001 31.5138 16.2474 32.8101 17.2612 33.3954L23.1351 36.7867C24.1489 37.372 25.4452 37.0246 26.0305 36.0109ZM70.5362 80.8796C71.1215 81.8934 70.7741 83.1897 69.7604 83.775C68.7466 84.3603 67.4503 84.0129 66.865 82.9991L63.4737 77.1252C62.8884 76.1115 63.2357 74.8152 64.2495 74.2299C65.2633 73.6446 66.5596 73.9919 67.1449 75.0057L70.5362 80.8796ZM36.2712 25.7701C37.285 25.1848 37.6323 23.8885 37.047 22.8747L33.6557 17.0008C33.0704 15.987 31.7741 15.6397 30.7604 16.225C29.7466 16.8103 29.3992 18.1066 29.9845 19.1204L33.3758 24.9943C33.9611 26.008 35.2574 26.3554 36.2712 25.7701Z" fill="url(#paint2_linear_312_2362)"/>
<defs>
<linearGradient id="paint0_linear_312_2362" x1="63.6136" y1="29.6522" x2="42.0671" y2="73.9244" gradientUnits="userSpaceOnUse">
<stop offset="0.182844" stop-color="#FFE600"/>
<stop offset="0.980542" stop-color="#F09000"/>
</linearGradient>
<linearGradient id="paint1_linear_312_2362" x1="38.1343" y1="20.8319" x2="71.5629" y2="101.126" gradientUnits="userSpaceOnUse">
<stop stop-color="#FFAC33"/>
<stop offset="1" stop-color="#B8710B"/>
</linearGradient>
<linearGradient id="paint2_linear_312_2362" x1="78.8744" y1="21.1739" x2="21.0103" y2="89" gradientUnits="userSpaceOnUse">
<stop stop-color="#FFAC33"/>
<stop offset="1" stop-color="#FFA420"/>
</linearGradient>
</defs>
</svg>
